ffmpeg version 8.1.1 Copyright (c) 2000-2026 the FFmpeg developers
  built with Apple clang version 17.0.0 (clang-1700.6.4.2)
  configuration: --prefix=/opt/homebrew/Cellar/ffmpeg/8.1.1 --enable-shared --enable-pthreads --enable-version3 --cc=clang --host-cflags= --host-ldflags= --enable-ffplay --enable-gpl --enable-libsvtav1 --enable-libopus --enable-libx264 --enable-libmp3lame --enable-libdav1d --enable-libvmaf --enable-libvpx --enable-libx265 --enable-openssl --enable-videotoolbox --enable-audiotoolbox --enable-neon
  libavutil      60. 26.101 / 60. 26.101
  libavcodec     62. 28.101 / 62. 28.101
  libavformat    62. 12.101 / 62. 12.101
  libavdevice    62.  3.101 / 62.  3.101
  libavfilter    11. 14.101 / 11. 14.101
  libswscale      9.  5.101 /  9.  5.101
  libswresample   6.  3.101 /  6.  3.101
Input #0, rtsp, from 'rtsp://localhost:8554/venue-003':
  Metadata:
    title           : No Name
  Duration: N/A, bitrate: N/A
  Stream #0:0: Video: h264 (Constrained Baseline), yuv420p(progressive), 1280x720 [SAR 1:1 DAR 16:9], 15 fps, 30 tbr, 90k tbn
Stream mapping:
  Stream #0:0 -> #0:0 (copy)
Output #0, hls, to '/Users/DEEL/Luca/vibe_check/vibecheck-backend/hls/venue-003/index.m3u8':
  Metadata:
    title           : No Name
    encoder         : Lavf62.12.101
  Stream #0:0: Video: h264 (Constrained Baseline), yuv420p(progressive), 1280x720 [SAR 1:1 DAR 16:9], q=2-31, 15 fps, 30 tbr, 90k tbn
Press [q] to stop, [?] for help
frame=    0 fps=0.0 q=-1.0 size=       0KiB time=00:00:05.66 bitrate=   0.0kbits/s speed=11.2x elapsed=0:00:00.50    frame=    0 fps=0.0 q=-1.0 size=       0KiB time=00:00:06.20 bitrate=   0.0kbits/s speed=6.14x elapsed=0:00:01.00    frame=    0 fps=0.0 q=-1.0 size=       0KiB time=00:00:06.66 bitrate=   0.0kbits/s speed=4.41x elapsed=0:00:01.51    frame=    0 fps=0.0 q=-1.0 size=       0KiB time=00:00:07.20 bitrate=   0.0kbits/s speed=3.57x elapsed=0:00:02.01    frame=    0 fps=0.0 q=-1.0 size=       0KiB time=00:00:07.66 bitrate=   0.0kbits/s speed=3.04x elapsed=0:00:02.52    frame=    0 fps=0.0 q=-1.0 size=       0KiB time=00:00:08.20 bitrate=   0.0kbits/s speed=2.71x elapsed=0:00:03.02    frame=    0 fps=0.0 q=-1.0 size=       0KiB time=00:00:08.66 bitrate=   0.0kbits/s speed=2.46x elapsed=0:00:03.52    frame=    0 fps=0.0 q=-1.0 size=       0KiB time=00:00:09.20 bitrate=   0.0kbits/s speed=2.28x elapsed=0:00:04.02    frame=    0 fps=0.0 q=-1.0 size=       0KiB time=00:00:09.73 bitrate=   0.0kbits/s speed=2.15x elapsed=0:00:04.53    frame=    0 fps=0.0 q=-1.0 size=       0KiB time=00:00:10.20 bitrate=   0.0kbits/s speed=2.03x elapsed=0:00:05.03    frame=    0 fps=0.0 q=-1.0 size=       0KiB time=00:00:10.73 bitrate=   0.0kbits/s speed=1.94x elapsed=0:00:05.54    frame=    0 fps=0.0 q=-1.0 size=       0KiB time=00:00:11.20 bitrate=   0.0kbits/s speed=1.85x elapsed=0:00:06.04    frame=    0 fps=0.0 q=-1.0 size=       0KiB time=00:00:11.73 bitrate=   0.0kbits/s speed=1.79x elapsed=0:00:06.54    frame=    0 fps=0.0 q=-1.0 size=       0KiB time=00:00:12.20 bitrate=   0.0kbits/s speed=1.73x elapsed=0:00:07.05    frame=    0 fps=0.0 q=-1.0 size=       0KiB time=00:00:12.73 bitrate=   0.0kbits/s speed=1.68x elapsed=0:00:07.55    frame=    0 fps=0.0 q=-1.0 size=       0KiB time=00:00:13.20 bitrate=   0.0kbits/s speed=1.64x elapsed=0:00:08.06    frame=    8 fps=0.9 q=-1.0 size=N/A time=00:00:13.73 bitrate=N/A speed= 1.6x elapsed=0:00:08.56    frame=   16 fps=1.8 q=-1.0 size=N/A time=00:00:14.26 bitrate=N/A speed=1.57x elapsed=0:00:09.06    frame=   23 fps=2.4 q=-1.0 size=N/A time=00:00:14.73 bitrate=N/A speed=1.54x elapsed=0:00:09.56    frame=   31 fps=3.1 q=-1.0 size=N/A time=00:00:15.26 bitrate=N/A speed=1.52x elapsed=0:00:10.07    frame=   38 fps=3.6 q=-1.0 size=N/A time=00:00:15.73 bitrate=N/A speed=1.49x elapsed=0:00:10.57    frame=   46 fps=4.2 q=-1.0 size=N/A time=00:00:16.26 bitrate=N/A speed=1.47x elapsed=0:00:11.07    frame=   53 fps=4.6 q=-1.0 size=N/A time=00:00:16.73 bitrate=N/A speed=1.44x elapsed=0:00:11.58    frame=   61 fps=5.0 q=-1.0 size=N/A time=00:00:17.26 bitrate=N/A speed=1.43x elapsed=0:00:12.08    frame=   68 fps=5.4 q=-1.0 size=N/A time=00:00:17.73 bitrate=N/A speed=1.41x elapsed=0:00:12.59    frame=   76 fps=5.8 q=-1.0 size=N/A time=00:00:18.26 bitrate=N/A speed=1.39x elapsed=0:00:13.09    frame=   83 fps=6.1 q=-1.0 size=N/A time=00:00:18.73 bitrate=N/A speed=1.38x elapsed=0:00:13.60    frame=   91 fps=6.4 q=-1.0 size=N/A time=00:00:19.26 bitrate=N/A speed=1.37x elapsed=0:00:14.10    frame=   99 fps=6.8 q=-1.0 size=N/A time=00:00:19.80 bitrate=N/A speed=1.35x elapsed=0:00:14.61    frame=  106 fps=7.0 q=-1.0 size=N/A time=00:00:20.26 bitrate=N/A speed=1.34x elapsed=0:00:15.11    frame=  114 fps=7.3 q=-1.0 size=N/A time=00:00:20.80 bitrate=N/A speed=1.33x elapsed=0:00:15.62    frame=  121 fps=7.5 q=-1.0 size=N/A time=00:00:21.26 bitrate=N/A speed=1.32x elapsed=0:00:16.12    frame=  129 fps=7.8 q=-1.0 size=N/A time=00:00:21.80 bitrate=N/A speed=1.31x elapsed=0:00:16.62    frame=  136 fps=7.9 q=-1.0 size=N/A time=00:00:22.26 bitrate=N/A speed= 1.3x elapsed=0:00:17.13    frame=  144 fps=8.2 q=-1.0 size=N/A time=00:00:22.80 bitrate=N/A speed=1.29x elapsed=0:00:17.64    frame=  152 fps=8.4 q=-1.0 size=N/A time=00:00:23.33 bitrate=N/A speed=1.29x elapsed=0:00:18.14    frame=  159 fps=8.5 q=-1.0 size=N/A time=00:00:23.80 bitrate=N/A speed=1.28x elapsed=0:00:18.64    frame=  167 fps=8.7 q=-1.0 size=N/A time=00:00:24.33 bitrate=N/A speed=1.27x elapsed=0:00:19.15    frame=  174 fps=8.9 q=-1.0 size=N/A time=00:00:24.80 bitrate=N/A speed=1.26x elapsed=0:00:19.65    frame=  182 fps=9.0 q=-1.0 size=N/A time=00:00:25.33 bitrate=N/A speed=1.26x elapsed=0:00:20.16    frame=  190 fps=9.2 q=-1.0 size=N/A time=00:00:25.86 bitrate=N/A speed=1.25x elapsed=0:00:20.66    frame=  197 fps=9.3 q=-1.0 size=N/A time=00:00:26.33 bitrate=N/A speed=1.24x elapsed=0:00:21.17    frame=  205 fps=9.5 q=-1.0 size=N/A time=00:00:26.86 bitrate=N/A speed=1.24x elapsed=0:00:21.68    frame=  212 fps=9.6 q=-1.0 size=N/A time=00:00:27.33 bitrate=N/A speed=1.23x elapsed=0:00:22.18    frame=  220 fps=9.7 q=-1.0 size=N/A time=00:00:27.86 bitrate=N/A speed=1.23x elapsed=0:00:22.68    frame=  227 fps=9.8 q=-1.0 size=N/A time=00:00:28.33 bitrate=N/A speed=1.22x elapsed=0:00:23.18    frame=  235 fps=9.9 q=-1.0 size=N/A time=00:00:28.86 bitrate=N/A speed=1.22x elapsed=0:00:23.68    frame=  242 fps= 10 q=-1.0 size=N/A time=00:00:29.33 bitrate=N/A speed=1.21x elapsed=0:00:24.18    frame=  250 fps= 10 q=-1.0 size=N/A time=00:00:29.86 bitrate=N/A speed=1.21x elapsed=0:00:24.69    [hls @ 0x15a105d80] Opening '/Users/DEEL/Luca/vibe_check/vibecheck-backend/hls/venue-003/index0.ts' for writing
[hls @ 0x15a105d80] Opening '/Users/DEEL/Luca/vibe_check/vibecheck-backend/hls/venue-003/index.m3u8.tmp' for writing
frame=  257 fps= 10 q=-1.0 size=N/A time=00:00:30.33 bitrate=N/A speed= 1.2x elapsed=0:00:25.19    frame=  265 fps= 10 q=-1.0 size=N/A time=00:00:30.86 bitrate=N/A speed= 1.2x elapsed=0:00:25.69    frame=  273 fps= 10 q=-1.0 size=N/A time=00:00:31.40 bitrate=N/A speed= 1.2x elapsed=0:00:26.20    frame=  280 fps= 10 q=-1.0 size=N/A time=00:00:31.86 bitrate=N/A speed=1.19x elapsed=0:00:26.70    frame=  288 fps= 11 q=-1.0 size=N/A time=00:00:32.40 bitrate=N/A speed=1.19x elapsed=0:00:27.21    frame=  295 fps= 11 q=-1.0 size=N/A time=00:00:32.86 bitrate=N/A speed=1.19x elapsed=0:00:27.71    frame=  303 fps= 11 q=-1.0 size=N/A time=00:00:33.40 bitrate=N/A speed=1.18x elapsed=0:00:28.22    frame=  310 fps= 11 q=-1.0 size=N/A time=00:00:33.86 bitrate=N/A speed=1.18x elapsed=0:00:28.72    frame=  318 fps= 11 q=-1.0 size=N/A time=00:00:34.40 bitrate=N/A speed=1.18x elapsed=0:00:29.22    frame=  325 fps= 11 q=-1.0 size=N/A time=00:00:34.86 bitrate=N/A speed=1.17x elapsed=0:00:29.73    frame=  333 fps= 11 q=-1.0 size=N/A time=00:00:35.40 bitrate=N/A speed=1.17x elapsed=0:00:30.23    frame=  341 fps= 11 q=-1.0 size=N/A time=00:00:35.93 bitrate=N/A speed=1.17x elapsed=0:00:30.73    frame=  348 fps= 11 q=-1.0 size=N/A time=00:00:36.40 bitrate=N/A speed=1.17x elapsed=0:00:31.23    frame=  356 fps= 11 q=-1.0 size=N/A time=00:00:36.93 bitrate=N/A speed=1.16x elapsed=0:00:31.74    frame=  363 fps= 11 q=-1.0 size=N/A time=00:00:37.40 bitrate=N/A speed=1.16x elapsed=0:00:32.24    frame=  371 fps= 11 q=-1.0 size=N/A time=00:00:37.93 bitrate=N/A speed=1.16x elapsed=0:00:32.75    frame=  378 fps= 11 q=-1.0 size=N/A time=00:00:38.40 bitrate=N/A speed=1.15x elapsed=0:00:33.25    frame=  386 fps= 11 q=-1.0 size=N/A time=00:00:38.93 bitrate=N/A speed=1.15x elapsed=0:00:33.75    frame=  394 fps= 11 q=-1.0 size=N/A time=00:00:39.46 bitrate=N/A speed=1.15x elapsed=0:00:34.26    frame=  401 fps= 12 q=-1.0 size=N/A time=00:00:39.93 bitrate=N/A speed=1.15x elapsed=0:00:34.76    frame=  409 fps= 12 q=-1.0 size=N/A time=00:00:40.46 bitrate=N/A speed=1.15x elapsed=0:00:35.26    frame=  416 fps= 12 q=-1.0 size=N/A time=00:00:40.93 bitrate=N/A speed=1.14x elapsed=0:00:35.77    frame=  424 fps= 12 q=-1.0 size=N/A time=00:00:41.46 bitrate=N/A speed=1.14x elapsed=0:00:36.27    frame=  431 fps= 12 q=-1.0 size=N/A time=00:00:41.93 bitrate=N/A speed=1.14x elapsed=0:00:36.77    frame=  439 fps= 12 q=-1.0 size=N/A time=00:00:42.46 bitrate=N/A speed=1.14x elapsed=0:00:37.28    frame=  446 fps= 12 q=-1.0 size=N/A time=00:00:42.93 bitrate=N/A speed=1.14x elapsed=0:00:37.78    frame=  454 fps= 12 q=-1.0 size=N/A time=00:00:43.46 bitrate=N/A speed=1.14x elapsed=0:00:38.29    frame=  461 fps= 12 q=-1.0 size=N/A time=00:00:43.93 bitrate=N/A speed=1.13x elapsed=0:00:38.79    frame=  469 fps= 12 q=-1.0 size=N/A time=00:00:44.46 bitrate=N/A speed=1.13x elapsed=0:00:39.30    frame=  477 fps= 12 q=-1.0 size=N/A time=00:00:45.00 bitrate=N/A speed=1.13x elapsed=0:00:39.80    frame=  484 fps= 12 q=-1.0 size=N/A time=00:00:45.46 bitrate=N/A speed=1.13x elapsed=0:00:40.31    frame=  492 fps= 12 q=-1.0 size=N/A time=00:00:46.00 bitrate=N/A speed=1.13x elapsed=0:00:40.81    frame=  499 fps= 12 q=-1.0 size=N/A time=00:00:46.46 bitrate=N/A speed=1.12x elapsed=0:00:41.31    [hls @ 0x15a105d80] Opening '/Users/DEEL/Luca/vibe_check/vibecheck-backend/hls/venue-003/index1.ts' for writing
[hls @ 0x15a105d80] Opening '/Users/DEEL/Luca/vibe_check/vibecheck-backend/hls/venue-003/index.m3u8.tmp' for writing
frame=  507 fps= 12 q=-1.0 size=N/A time=00:00:47.00 bitrate=N/A speed=1.12x elapsed=0:00:41.82    frame=  514 fps= 12 q=-1.0 size=N/A time=00:00:47.46 bitrate=N/A speed=1.12x elapsed=0:00:42.33    frame=  522 fps= 12 q=-1.0 size=N/A time=00:00:48.00 bitrate=N/A speed=1.12x elapsed=0:00:42.83    frame=  530 fps= 12 q=-1.0 size=N/A time=00:00:48.53 bitrate=N/A speed=1.12x elapsed=0:00:43.33    frame=  537 fps= 12 q=-1.0 size=N/A time=00:00:49.00 bitrate=N/A speed=1.12x elapsed=0:00:43.84    frame=  545 fps= 12 q=-1.0 size=N/A time=00:00:49.53 bitrate=N/A speed=1.12x elapsed=0:00:44.34    frame=  552 fps= 12 q=-1.0 size=N/A time=00:00:50.00 bitrate=N/A speed=1.11x elapsed=0:00:44.84    frame=  560 fps= 12 q=-1.0 size=N/A time=00:00:50.53 bitrate=N/A speed=1.11x elapsed=0:00:45.34    frame=  567 fps= 12 q=-1.0 size=N/A time=00:00:51.00 bitrate=N/A speed=1.11x elapsed=0:00:45.85    frame=  575 fps= 12 q=-1.0 size=N/A time=00:00:51.53 bitrate=N/A speed=1.11x elapsed=0:00:46.35    frame=  582 fps= 12 q=-1.0 size=N/A time=00:00:52.00 bitrate=N/A speed=1.11x elapsed=0:00:46.85    frame=  590 fps= 12 q=-1.0 size=N/A time=00:00:52.53 bitrate=N/A speed=1.11x elapsed=0:00:47.36    frame=  598 fps= 12 q=-1.0 size=N/A time=00:00:53.06 bitrate=N/A speed=1.11x elapsed=0:00:47.86    frame=  605 fps= 13 q=-1.0 size=N/A time=00:00:53.53 bitrate=N/A speed=1.11x elapsed=0:00:48.36    frame=  613 fps= 13 q=-1.0 size=N/A time=00:00:54.06 bitrate=N/A speed=1.11x elapsed=0:00:48.87    frame=  620 fps= 13 q=-1.0 size=N/A time=00:00:54.53 bitrate=N/A speed= 1.1x elapsed=0:00:49.37    frame=  628 fps= 13 q=-1.0 size=N/A time=00:00:55.06 bitrate=N/A speed= 1.1x elapsed=0:00:49.87    frame=  635 fps= 13 q=-1.0 size=N/A time=00:00:55.53 bitrate=N/A speed= 1.1x elapsed=0:00:50.38    frame=  643 fps= 13 q=-1.0 size=N/A time=00:00:56.06 bitrate=N/A speed= 1.1x elapsed=0:00:50.88    frame=  650 fps= 13 q=-1.0 size=N/A time=00:00:56.53 bitrate=N/A speed= 1.1x elapsed=0:00:51.39    frame=  658 fps= 13 q=-1.0 size=N/A time=00:00:57.06 bitrate=N/A speed= 1.1x elapsed=0:00:51.89    frame=  665 fps= 13 q=-1.0 size=N/A time=00:00:57.53 bitrate=N/A speed= 1.1x elapsed=0:00:52.40    frame=  673 fps= 13 q=-1.0 size=N/A time=00:00:58.06 bitrate=N/A speed= 1.1x elapsed=0:00:52.91    frame=  681 fps= 13 q=-1.0 size=N/A time=00:00:58.60 bitrate=N/A speed= 1.1x elapsed=0:00:53.41    frame=  688 fps= 13 q=-1.0 size=N/A time=00:00:59.06 bitrate=N/A speed= 1.1x elapsed=0:00:53.92    frame=  696 fps= 13 q=-1.0 size=N/A time=00:00:59.60 bitrate=N/A speed=1.09x elapsed=0:00:54.43    frame=  704 fps= 13 q=-1.0 size=N/A time=00:01:00.13 bitrate=N/A speed=1.09x elapsed=0:00:54.93    frame=  711 fps= 13 q=-1.0 size=N/A time=00:01:00.60 bitrate=N/A speed=1.09x elapsed=0:00:55.43    frame=  719 fps= 13 q=-1.0 size=N/A time=00:01:01.13 bitrate=N/A speed=1.09x elapsed=0:00:55.93    frame=  726 fps= 13 q=-1.0 size=N/A time=00:01:01.60 bitrate=N/A speed=1.09x elapsed=0:00:56.43    frame=  734 fps= 13 q=-1.0 size=N/A time=00:01:02.13 bitrate=N/A speed=1.09x elapsed=0:00:56.94    frame=  741 fps= 13 q=-1.0 size=N/A time=00:01:02.60 bitrate=N/A speed=1.09x elapsed=0:00:57.44    frame=  749 fps= 13 q=-1.0 size=N/A time=00:01:03.13 bitrate=N/A speed=1.09x elapsed=0:00:57.94    [hls @ 0x15a105d80] Opening '/Users/DEEL/Luca/vibe_check/vibecheck-backend/hls/venue-003/index2.ts' for writing
[hls @ 0x15a105d80] Opening '/Users/DEEL/Luca/vibe_check/vibecheck-backend/hls/venue-003/index.m3u8.tmp' for writing
frame=  756 fps= 13 q=-1.0 size=N/A time=00:01:03.60 bitrate=N/A speed=1.09x elapsed=0:00:58.44    frame=  764 fps= 13 q=-1.0 size=N/A time=00:01:04.13 bitrate=N/A speed=1.09x elapsed=0:00:58.94    frame=  771 fps= 13 q=-1.0 size=N/A time=00:01:04.60 bitrate=N/A speed=1.09x elapsed=0:00:59.45    frame=  779 fps= 13 q=-1.0 size=N/A time=00:01:05.13 bitrate=N/A speed=1.09x elapsed=0:00:59.95    frame=  786 fps= 13 q=-1.0 size=N/A time=00:01:05.60 bitrate=N/A speed=1.09x elapsed=0:01:00.45    frame=  794 fps= 13 q=-1.0 size=N/A time=00:01:06.13 bitrate=N/A speed=1.08x elapsed=0:01:00.95    frame=  801 fps= 13 q=-1.0 size=N/A time=00:01:06.60 bitrate=N/A speed=1.08x elapsed=0:01:01.45    frame=  809 fps= 13 q=-1.0 size=N/A time=00:01:07.13 bitrate=N/A speed=1.08x elapsed=0:01:01.96    frame=  817 fps= 13 q=-1.0 size=N/A time=00:01:07.66 bitrate=N/A speed=1.08x elapsed=0:01:02.46    frame=  824 fps= 13 q=-1.0 size=N/A time=00:01:08.13 bitrate=N/A speed=1.08x elapsed=0:01:02.97    frame=  832 fps= 13 q=-1.0 size=N/A time=00:01:08.66 bitrate=N/A speed=1.08x elapsed=0:01:03.47    frame=  839 fps= 13 q=-1.0 size=N/A time=00:01:09.13 bitrate=N/A speed=1.08x elapsed=0:01:03.97    frame=  847 fps= 13 q=-1.0 size=N/A time=00:01:09.66 bitrate=N/A speed=1.08x elapsed=0:01:04.47    frame=  854 fps= 13 q=-1.0 size=N/A time=00:01:10.13 bitrate=N/A speed=1.08x elapsed=0:01:04.97    frame=  862 fps= 13 q=-1.0 size=N/A time=00:01:10.66 bitrate=N/A speed=1.08x elapsed=0:01:05.48    frame=  869 fps= 13 q=-1.0 size=N/A time=00:01:11.13 bitrate=N/A speed=1.08x elapsed=0:01:05.98    frame=  877 fps= 13 q=-1.0 size=N/A time=00:01:11.66 bitrate=N/A speed=1.08x elapsed=0:01:06.48    frame=  884 fps= 13 q=-1.0 size=N/A time=00:01:12.13 bitrate=N/A speed=1.08x elapsed=0:01:06.98    frame=  892 fps= 13 q=-1.0 size=N/A time=00:01:12.66 bitrate=N/A speed=1.08x elapsed=0:01:07.49    frame=  899 fps= 13 q=-1.0 size=N/A time=00:01:13.13 bitrate=N/A speed=1.08x elapsed=0:01:07.99    frame=  907 fps= 13 q=-1.0 size=N/A time=00:01:13.66 bitrate=N/A speed=1.08x elapsed=0:01:08.49    frame=  914 fps= 13 q=-1.0 size=N/A time=00:01:14.13 bitrate=N/A speed=1.07x elapsed=0:01:08.99    frame=  922 fps= 13 q=-1.0 size=N/A time=00:01:14.66 bitrate=N/A speed=1.07x elapsed=0:01:09.49    frame=  930 fps= 13 q=-1.0 size=N/A time=00:01:15.20 bitrate=N/A speed=1.07x elapsed=0:01:10.00    frame=  937 fps= 13 q=-1.0 size=N/A time=00:01:15.66 bitrate=N/A speed=1.07x elapsed=0:01:10.50    frame=  945 fps= 13 q=-1.0 size=N/A time=00:01:16.20 bitrate=N/A speed=1.07x elapsed=0:01:11.00    frame=  952 fps= 13 q=-1.0 size=N/A time=00:01:16.66 bitrate=N/A speed=1.07x elapsed=0:01:11.51    frame=  960 fps= 13 q=-1.0 size=N/A time=00:01:17.20 bitrate=N/A speed=1.07x elapsed=0:01:12.01    frame=  967 fps= 13 q=-1.0 size=N/A time=00:01:17.66 bitrate=N/A speed=1.07x elapsed=0:01:12.51    frame=  975 fps= 13 q=-1.0 size=N/A time=00:01:18.20 bitrate=N/A speed=1.07x elapsed=0:01:13.02    frame=  982 fps= 13 q=-1.0 size=N/A time=00:01:18.66 bitrate=N/A speed=1.07x elapsed=0:01:13.52    frame=  990 fps= 13 q=-1.0 size=N/A time=00:01:19.20 bitrate=N/A speed=1.07x elapsed=0:01:14.03    frame=  998 fps= 13 q=-1.0 size=N/A time=00:01:19.73 bitrate=N/A speed=1.07x elapsed=0:01:14.53    [hls @ 0x15a105d80] Opening '/Users/DEEL/Luca/vibe_check/vibecheck-backend/hls/venue-003/index3.ts' for writing
[hls @ 0x15a105d80] Opening '/Users/DEEL/Luca/vibe_check/vibecheck-backend/hls/venue-003/index.m3u8.tmp' for writing
frame= 1005 fps= 13 q=-1.0 size=N/A time=00:01:20.20 bitrate=N/A speed=1.07x elapsed=0:01:15.03    frame= 1013 fps= 13 q=-1.0 size=N/A time=00:01:20.73 bitrate=N/A speed=1.07x elapsed=0:01:15.54    frame= 1020 fps= 13 q=-1.0 size=N/A time=00:01:21.20 bitrate=N/A speed=1.07x elapsed=0:01:16.04    frame= 1028 fps= 13 q=-1.0 size=N/A time=00:01:21.73 bitrate=N/A speed=1.07x elapsed=0:01:16.55    frame= 1035 fps= 13 q=-1.0 size=N/A time=00:01:22.20 bitrate=N/A speed=1.07x elapsed=0:01:17.06    frame= 1043 fps= 13 q=-1.0 size=N/A time=00:01:22.73 bitrate=N/A speed=1.07x elapsed=0:01:17.56    frame= 1051 fps= 13 q=-1.0 size=N/A time=00:01:23.26 bitrate=N/A speed=1.07x elapsed=0:01:18.08    frame= 1058 fps= 13 q=-1.0 size=N/A time=00:01:23.73 bitrate=N/A speed=1.07x elapsed=0:01:18.58    frame= 1066 fps= 13 q=-1.0 size=N/A time=00:01:24.26 bitrate=N/A speed=1.07x elapsed=0:01:19.09    frame= 1073 fps= 13 q=-1.0 size=N/A time=00:01:24.73 bitrate=N/A speed=1.06x elapsed=0:01:19.59    frame= 1081 fps= 13 q=-1.0 size=N/A time=00:01:25.26 bitrate=N/A speed=1.06x elapsed=0:01:20.10    frame= 1089 fps= 14 q=-1.0 size=N/A time=00:01:25.80 bitrate=N/A speed=1.06x elapsed=0:01:20.61    frame= 1096 fps= 14 q=-1.0 size=N/A time=00:01:26.26 bitrate=N/A speed=1.06x elapsed=0:01:21.11    frame= 1104 fps= 14 q=-1.0 size=N/A time=00:01:26.80 bitrate=N/A speed=1.06x elapsed=0:01:21.61    frame= 1111 fps= 14 q=-1.0 size=N/A time=00:01:27.26 bitrate=N/A speed=1.06x elapsed=0:01:22.12    frame= 1119 fps= 14 q=-1.0 size=N/A time=00:01:27.80 bitrate=N/A speed=1.06x elapsed=0:01:22.62    frame= 1126 fps= 14 q=-1.0 size=N/A time=00:01:28.26 bitrate=N/A speed=1.06x elapsed=0:01:23.12    frame= 1134 fps= 14 q=-1.0 size=N/A time=00:01:28.80 bitrate=N/A speed=1.06x elapsed=0:01:23.62    frame= 1141 fps= 14 q=-1.0 size=N/A time=00:01:29.26 bitrate=N/A speed=1.06x elapsed=0:01:24.12    frame= 1149 fps= 14 q=-1.0 size=N/A time=00:01:29.80 bitrate=N/A speed=1.06x elapsed=0:01:24.62    frame= 1157 fps= 14 q=-1.0 size=N/A time=00:01:30.33 bitrate=N/A speed=1.06x elapsed=0:01:25.13    frame= 1164 fps= 14 q=-1.0 size=N/A time=00:01:30.80 bitrate=N/A speed=1.06x elapsed=0:01:25.63    frame= 1172 fps= 14 q=-1.0 size=N/A time=00:01:31.33 bitrate=N/A speed=1.06x elapsed=0:01:26.14    frame= 1179 fps= 14 q=-1.0 size=N/A time=00:01:31.80 bitrate=N/A speed=1.06x elapsed=0:01:26.64    frame= 1187 fps= 14 q=-1.0 size=N/A time=00:01:32.33 bitrate=N/A speed=1.06x elapsed=0:01:27.14    frame= 1194 fps= 14 q=-1.0 size=N/A time=00:01:32.80 bitrate=N/A speed=1.06x elapsed=0:01:27.65    frame= 1202 fps= 14 q=-1.0 size=N/A time=00:01:33.33 bitrate=N/A speed=1.06x elapsed=0:01:28.15    frame= 1210 fps= 14 q=-1.0 size=N/A time=00:01:33.86 bitrate=N/A speed=1.06x elapsed=0:01:28.66    frame= 1217 fps= 14 q=-1.0 size=N/A time=00:01:34.33 bitrate=N/A speed=1.06x elapsed=0:01:29.16    frame= 1224 fps= 14 q=-1.0 size=N/A time=00:01:34.80 bitrate=N/A speed=1.06x elapsed=0:01:29.66    frame= 1232 fps= 14 q=-1.0 size=N/A time=00:01:35.33 bitrate=N/A speed=1.06x elapsed=0:01:30.16    frame= 1240 fps= 14 q=-1.0 size=N/A time=00:01:35.86 bitrate=N/A speed=1.06x elapsed=0:01:30.67    frame= 1247 fps= 14 q=-1.0 size=N/A time=00:01:36.33 bitrate=N/A speed=1.06x elapsed=0:01:31.17    [hls @ 0x15a105d80] Opening '/Users/DEEL/Luca/vibe_check/vibecheck-backend/hls/venue-003/index4.ts' for writing
[hls @ 0x15a105d80] Opening '/Users/DEEL/Luca/vibe_check/vibecheck-backend/hls/venue-003/index.m3u8.tmp' for writing
frame= 1255 fps= 14 q=-1.0 size=N/A time=00:01:36.86 bitrate=N/A speed=1.06x elapsed=0:01:31.68    frame= 1262 fps= 14 q=-1.0 size=N/A time=00:01:37.33 bitrate=N/A speed=1.06x elapsed=0:01:32.18    frame= 1270 fps= 14 q=-1.0 size=N/A time=00:01:37.86 bitrate=N/A speed=1.06x elapsed=0:01:32.68    frame= 1277 fps= 14 q=-1.0 size=N/A time=00:01:38.33 bitrate=N/A speed=1.06x elapsed=0:01:33.18    frame= 1285 fps= 14 q=-1.0 size=N/A time=00:01:38.86 bitrate=N/A speed=1.06x elapsed=0:01:33.69    frame= 1292 fps= 14 q=-1.0 size=N/A time=00:01:39.33 bitrate=N/A speed=1.05x elapsed=0:01:34.19    frame= 1300 fps= 14 q=-1.0 size=N/A time=00:01:39.86 bitrate=N/A speed=1.05x elapsed=0:01:34.69    frame= 1308 fps= 14 q=-1.0 size=N/A time=00:01:40.40 bitrate=N/A speed=1.05x elapsed=0:01:35.19    frame= 1315 fps= 14 q=-1.0 size=N/A time=00:01:40.86 bitrate=N/A speed=1.05x elapsed=0:01:35.70    frame= 1323 fps= 14 q=-1.0 size=N/A time=00:01:41.40 bitrate=N/A speed=1.05x elapsed=0:01:36.20    frame= 1330 fps= 14 q=-1.0 size=N/A time=00:01:41.86 bitrate=N/A speed=1.05x elapsed=0:01:36.70    frame= 1338 fps= 14 q=-1.0 size=N/A time=00:01:42.40 bitrate=N/A speed=1.05x elapsed=0:01:37.21    frame= 1345 fps= 14 q=-1.0 size=N/A time=00:01:42.86 bitrate=N/A speed=1.05x elapsed=0:01:37.71    frame= 1353 fps= 14 q=-1.0 size=N/A time=00:01:43.40 bitrate=N/A speed=1.05x elapsed=0:01:38.22    frame= 1360 fps= 14 q=-1.0 size=N/A time=00:01:43.86 bitrate=N/A speed=1.05x elapsed=0:01:38.72    frame= 1368 fps= 14 q=-1.0 size=N/A time=00:01:44.40 bitrate=N/A speed=1.05x elapsed=0:01:39.22    frame= 1375 fps= 14 q=-1.0 size=N/A time=00:01:44.86 bitrate=N/A speed=1.05x elapsed=0:01:39.72    frame= 1383 fps= 14 q=-1.0 size=N/A time=00:01:45.40 bitrate=N/A speed=1.05x elapsed=0:01:40.22    frame= 1390 fps= 14 q=-1.0 size=N/A time=00:01:45.86 bitrate=N/A speed=1.05x elapsed=0:01:40.73    frame= 1398 fps= 14 q=-1.0 size=N/A time=00:01:46.40 bitrate=N/A speed=1.05x elapsed=0:01:41.23    frame= 1406 fps= 14 q=-1.0 size=N/A time=00:01:46.93 bitrate=N/A speed=1.05x elapsed=0:01:41.74    frame= 1413 fps= 14 q=-1.0 size=N/A time=00:01:47.40 bitrate=N/A speed=1.05x elapsed=0:01:42.24    frame= 1421 fps= 14 q=-1.0 size=N/A time=00:01:47.93 bitrate=N/A speed=1.05x elapsed=0:01:42.74    frame= 1428 fps= 14 q=-1.0 size=N/A time=00:01:48.40 bitrate=N/A speed=1.05x elapsed=0:01:43.25    frame= 1436 fps= 14 q=-1.0 size=N/A time=00:01:48.93 bitrate=N/A speed=1.05x elapsed=0:01:43.75    frame= 1443 fps= 14 q=-1.0 size=N/A time=00:01:49.40 bitrate=N/A speed=1.05x elapsed=0:01:44.26    frame= 1451 fps= 14 q=-1.0 size=N/A time=00:01:49.93 bitrate=N/A speed=1.05x elapsed=0:01:44.76    frame= 1459 fps= 14 q=-1.0 size=N/A time=00:01:50.46 bitrate=N/A speed=1.05x elapsed=0:01:45.27    frame= 1466 fps= 14 q=-1.0 size=N/A time=00:01:50.93 bitrate=N/A speed=1.05x elapsed=0:01:45.77    frame= 1474 fps= 14 q=-1.0 size=N/A time=00:01:51.46 bitrate=N/A speed=1.05x elapsed=0:01:46.27    frame= 1481 fps= 14 q=-1.0 size=N/A time=00:01:51.93 bitrate=N/A speed=1.05x elapsed=0:01:46.77    frame= 1489 fps= 14 q=-1.0 size=N/A time=00:01:52.46 bitrate=N/A speed=1.05x elapsed=0:01:47.28    frame= 1496 fps= 14 q=-1.0 size=N/A time=00:01:52.93 bitrate=N/A speed=1.05x elapsed=0:01:47.78    [hls @ 0x15a105d80] Opening '/Users/DEEL/Luca/vibe_check/vibecheck-backend/hls/venue-003/index5.ts' for writing
[hls @ 0x15a105d80] Opening '/Users/DEEL/Luca/vibe_check/vibecheck-backend/hls/venue-003/index.m3u8.tmp' for writing
frame= 1504 fps= 14 q=-1.0 size=N/A time=00:01:53.46 bitrate=N/A speed=1.05x elapsed=0:01:48.28    frame= 1511 fps= 14 q=-1.0 size=N/A time=00:01:53.93 bitrate=N/A speed=1.05x elapsed=0:01:48.79    frame= 1519 fps= 14 q=-1.0 size=N/A time=00:01:54.46 bitrate=N/A speed=1.05x elapsed=0:01:49.30    frame= 1527 fps= 14 q=-1.0 size=N/A time=00:01:55.00 bitrate=N/A speed=1.05x elapsed=0:01:49.80    frame= 1534 fps= 14 q=-1.0 size=N/A time=00:01:55.46 bitrate=N/A speed=1.05x elapsed=0:01:50.31    frame= 1542 fps= 14 q=-1.0 size=N/A time=00:01:56.00 bitrate=N/A speed=1.05x elapsed=0:01:50.81    frame= 1549 fps= 14 q=-1.0 size=N/A time=00:01:56.46 bitrate=N/A speed=1.05x elapsed=0:01:51.31    frame= 1557 fps= 14 q=-1.0 size=N/A time=00:01:57.00 bitrate=N/A speed=1.05x elapsed=0:01:51.82    frame= 1564 fps= 14 q=-1.0 size=N/A time=00:01:57.46 bitrate=N/A speed=1.05x elapsed=0:01:52.32    frame= 1572 fps= 14 q=-1.0 size=N/A time=00:01:58.00 bitrate=N/A speed=1.05x elapsed=0:01:52.82    frame= 1579 fps= 14 q=-1.0 size=N/A time=00:01:58.46 bitrate=N/A speed=1.05x elapsed=0:01:53.32    frame= 1587 fps= 14 q=-1.0 size=N/A time=00:01:59.00 bitrate=N/A speed=1.05x elapsed=0:01:53.82    frame= 1595 fps= 14 q=-1.0 size=N/A time=00:01:59.53 bitrate=N/A speed=1.05x elapsed=0:01:54.33    frame= 1602 fps= 14 q=-1.0 size=N/A time=00:02:00.00 bitrate=N/A speed=1.04x elapsed=0:01:54.84    frame= 1610 fps= 14 q=-1.0 size=N/A time=00:02:00.53 bitrate=N/A speed=1.04x elapsed=0:01:55.34    frame= 1617 fps= 14 q=-1.0 size=N/A time=00:02:01.00 bitrate=N/A speed=1.04x elapsed=0:01:55.85    frame= 1625 fps= 14 q=-1.0 size=N/A time=00:02:01.53 bitrate=N/A speed=1.04x elapsed=0:01:56.35    frame= 1632 fps= 14 q=-1.0 size=N/A time=00:02:02.00 bitrate=N/A speed=1.04x elapsed=0:01:56.86    frame= 1640 fps= 14 q=-1.0 size=N/A time=00:02:02.53 bitrate=N/A speed=1.04x elapsed=0:01:57.36    frame= 1648 fps= 14 q=-1.0 size=N/A time=00:02:03.06 bitrate=N/A speed=1.04x elapsed=0:01:57.87    frame= 1655 fps= 14 q=-1.0 size=N/A time=00:02:03.53 bitrate=N/A speed=1.04x elapsed=0:01:58.38    frame= 1663 fps= 14 q=-1.0 size=N/A time=00:02:04.06 bitrate=N/A speed=1.04x elapsed=0:01:58.88    frame= 1670 fps= 14 q=-1.0 size=N/A time=00:02:04.53 bitrate=N/A speed=1.04x elapsed=0:01:59.39    frame= 1678 fps= 14 q=-1.0 size=N/A time=00:02:05.06 bitrate=N/A speed=1.04x elapsed=0:01:59.89    frame= 1685 fps= 14 q=-1.0 size=N/A time=00:02:05.53 bitrate=N/A speed=1.04x elapsed=0:02:00.39    frame= 1693 fps= 14 q=-1.0 size=N/A time=00:02:06.06 bitrate=N/A speed=1.04x elapsed=0:02:00.90    frame= 1701 fps= 14 q=-1.0 size=N/A time=00:02:06.60 bitrate=N/A speed=1.04x elapsed=0:02:01.40    frame= 1708 fps= 14 q=-1.0 size=N/A time=00:02:07.06 bitrate=N/A speed=1.04x elapsed=0:02:01.90    frame= 1716 fps= 14 q=-1.0 size=N/A time=00:02:07.60 bitrate=N/A speed=1.04x elapsed=0:02:02.41    frame= 1723 fps= 14 q=-1.0 size=N/A time=00:02:08.06 bitrate=N/A speed=1.04x elapsed=0:02:02.91    frame= 1731 fps= 14 q=-1.0 size=N/A time=00:02:08.60 bitrate=N/A speed=1.04x elapsed=0:02:03.41    frame= 1738 fps= 14 q=-1.0 size=N/A time=00:02:09.06 bitrate=N/A speed=1.04x elapsed=0:02:03.92    frame= 1746 fps= 14 q=-1.0 size=N/A time=00:02:09.60 bitrate=N/A speed=1.04x elapsed=0:02:04.42    [hls @ 0x15a105d80] Opening '/Users/DEEL/Luca/vibe_check/vibecheck-backend/hls/venue-003/index6.ts' for writing
[hls @ 0x15a105d80] Opening '/Users/DEEL/Luca/vibe_check/vibecheck-backend/hls/venue-003/index.m3u8.tmp' for writing
frame= 1753 fps= 14 q=-1.0 size=N/A time=00:02:10.06 bitrate=N/A speed=1.04x elapsed=0:02:04.92    frame= 1761 fps= 14 q=-1.0 size=N/A time=00:02:10.60 bitrate=N/A speed=1.04x elapsed=0:02:05.43    frame= 1769 fps= 14 q=-1.0 size=N/A time=00:02:11.13 bitrate=N/A speed=1.04x elapsed=0:02:05.93    frame= 1776 fps= 14 q=-1.0 size=N/A time=00:02:11.60 bitrate=N/A speed=1.04x elapsed=0:02:06.44    frame= 1784 fps= 14 q=-1.0 size=N/A time=00:02:12.13 bitrate=N/A speed=1.04x elapsed=0:02:06.94    frame= 1791 fps= 14 q=-1.0 size=N/A time=00:02:12.60 bitrate=N/A speed=1.04x elapsed=0:02:07.45    frame= 1799 fps= 14 q=-1.0 size=N/A time=00:02:13.13 bitrate=N/A speed=1.04x elapsed=0:02:07.95    frame= 1806 fps= 14 q=-1.0 size=N/A time=00:02:13.60 bitrate=N/A speed=1.04x elapsed=0:02:08.45    frame= 1814 fps= 14 q=-1.0 size=N/A time=00:02:14.13 bitrate=N/A speed=1.04x elapsed=0:02:08.96    frame= 1821 fps= 14 q=-1.0 size=N/A time=00:02:14.60 bitrate=N/A speed=1.04x elapsed=0:02:09.46    frame= 1829 fps= 14 q=-1.0 size=N/A time=00:02:15.13 bitrate=N/A speed=1.04x elapsed=0:02:09.96    frame= 1837 fps= 14 q=-1.0 size=N/A time=00:02:15.66 bitrate=N/A speed=1.04x elapsed=0:02:10.46    frame= 1844 fps= 14 q=-1.0 size=N/A time=00:02:16.13 bitrate=N/A speed=1.04x elapsed=0:02:10.97    frame= 1852 fps= 14 q=-1.0 size=N/A time=00:02:16.66 bitrate=N/A speed=1.04x elapsed=0:02:11.47    frame= 1859 fps= 14 q=-1.0 size=N/A time=00:02:17.13 bitrate=N/A speed=1.04x elapsed=0:02:11.98    frame= 1867 fps= 14 q=-1.0 size=N/A time=00:02:17.66 bitrate=N/A speed=1.04x elapsed=0:02:12.48    frame= 1874 fps= 14 q=-1.0 size=N/A time=00:02:18.13 bitrate=N/A speed=1.04x elapsed=0:02:12.99    frame= 1882 fps= 14 q=-1.0 size=N/A time=00:02:18.66 bitrate=N/A speed=1.04x elapsed=0:02:13.49    frame= 1889 fps= 14 q=-1.0 size=N/A time=00:02:19.13 bitrate=N/A speed=1.04x elapsed=0:02:13.99    frame= 1897 fps= 14 q=-1.0 size=N/A time=00:02:19.66 bitrate=N/A speed=1.04x elapsed=0:02:14.49    frame= 1905 fps= 14 q=-1.0 size=N/A time=00:02:20.20 bitrate=N/A speed=1.04x elapsed=0:02:15.00    frame= 1912 fps= 14 q=-1.0 size=N/A time=00:02:20.66 bitrate=N/A speed=1.04x elapsed=0:02:15.50    frame= 1920 fps= 14 q=-1.0 size=N/A time=00:02:21.20 bitrate=N/A speed=1.04x elapsed=0:02:16.00    frame= 1927 fps= 14 q=-1.0 size=N/A time=00:02:21.66 bitrate=N/A speed=1.04x elapsed=0:02:16.50    frame= 1935 fps= 14 q=-1.0 size=N/A time=00:02:22.20 bitrate=N/A speed=1.04x elapsed=0:02:17.01    frame= 1942 fps= 14 q=-1.0 size=N/A time=00:02:22.66 bitrate=N/A speed=1.04x elapsed=0:02:17.51    frame= 1950 fps= 14 q=-1.0 size=N/A time=00:02:23.20 bitrate=N/A speed=1.04x elapsed=0:02:18.01    frame= 1957 fps= 14 q=-1.0 size=N/A time=00:02:23.66 bitrate=N/A speed=1.04x elapsed=0:02:18.51    frame= 1965 fps= 14 q=-1.0 size=N/A time=00:02:24.20 bitrate=N/A speed=1.04x elapsed=0:02:19.02    frame= 1972 fps= 14 q=-1.0 size=N/A time=00:02:24.66 bitrate=N/A speed=1.04x elapsed=0:02:19.52    frame= 1980 fps= 14 q=-1.0 size=N/A time=00:02:25.20 bitrate=N/A speed=1.04x elapsed=0:02:20.03    frame= 1988 fps= 14 q=-1.0 size=N/A time=00:02:25.73 bitrate=N/A speed=1.04x elapsed=0:02:20.53    frame= 1995 fps= 14 q=-1.0 size=N/A time=00:02:26.20 bitrate=N/A speed=1.04x elapsed=0:02:21.03    [hls @ 0x15a105d80] Opening '/Users/DEEL/Luca/vibe_check/vibecheck-backend/hls/venue-003/index7.ts' for writing
[hls @ 0x15a105d80] Opening '/Users/DEEL/Luca/vibe_check/vibecheck-backend/hls/venue-003/index.m3u8.tmp' for writing
frame= 2003 fps= 14 q=-1.0 size=N/A time=00:02:26.73 bitrate=N/A speed=1.04x elapsed=0:02:21.53    frame= 2010 fps= 14 q=-1.0 size=N/A time=00:02:27.20 bitrate=N/A speed=1.04x elapsed=0:02:22.04    frame= 2018 fps= 14 q=-1.0 size=N/A time=00:02:27.73 bitrate=N/A speed=1.04x elapsed=0:02:22.54    frame= 2025 fps= 14 q=-1.0 size=N/A time=00:02:28.20 bitrate=N/A speed=1.04x elapsed=0:02:23.05    frame= 2033 fps= 14 q=-1.0 size=N/A time=00:02:28.73 bitrate=N/A speed=1.04x elapsed=0:02:23.55    frame= 2040 fps= 14 q=-1.0 size=N/A time=00:02:29.20 bitrate=N/A speed=1.04x elapsed=0:02:24.05    frame= 2048 fps= 14 q=-1.0 size=N/A time=00:02:29.73 bitrate=N/A speed=1.04x elapsed=0:02:24.56    frame= 2055 fps= 14 q=-1.0 size=N/A time=00:02:30.20 bitrate=N/A speed=1.04x elapsed=0:02:25.06    frame= 2063 fps= 14 q=-1.0 size=N/A time=00:02:30.73 bitrate=N/A speed=1.04x elapsed=0:02:25.56    frame= 2071 fps= 14 q=-1.0 size=N/A time=00:02:31.26 bitrate=N/A speed=1.04x elapsed=0:02:26.06    frame= 2078 fps= 14 q=-1.0 size=N/A time=00:02:31.73 bitrate=N/A speed=1.04x elapsed=0:02:26.56    frame= 2086 fps= 14 q=-1.0 size=N/A time=00:02:32.26 bitrate=N/A speed=1.04x elapsed=0:02:27.07    frame= 2093 fps= 14 q=-1.0 size=N/A time=00:02:32.73 bitrate=N/A speed=1.03x elapsed=0:02:27.57    frame= 2101 fps= 14 q=-1.0 size=N/A time=00:02:33.26 bitrate=N/A speed=1.04x elapsed=0:02:28.07    frame= 2108 fps= 14 q=-1.0 size=N/A time=00:02:33.73 bitrate=N/A speed=1.03x elapsed=0:02:28.58    frame= 2116 fps= 14 q=-1.0 size=N/A time=00:02:34.26 bitrate=N/A speed=1.03x elapsed=0:02:29.08    frame= 2123 fps= 14 q=-1.0 size=N/A time=00:02:34.73 bitrate=N/A speed=1.03x elapsed=0:02:29.58    frame= 2131 fps= 14 q=-1.0 size=N/A time=00:02:35.26 bitrate=N/A speed=1.03x elapsed=0:02:30.09    frame= 2138 fps= 14 q=-1.0 size=N/A time=00:02:35.73 bitrate=N/A speed=1.03x elapsed=0:02:30.59    frame= 2146 fps= 14 q=-1.0 size=N/A time=00:02:36.26 bitrate=N/A speed=1.03x elapsed=0:02:31.09    frame= 2154 fps= 14 q=-1.0 size=N/A time=00:02:36.80 bitrate=N/A speed=1.03x elapsed=0:02:31.59    frame= 2161 fps= 14 q=-1.0 size=N/A time=00:02:37.26 bitrate=N/A speed=1.03x elapsed=0:02:32.10    frame= 2169 fps= 14 q=-1.0 size=N/A time=00:02:37.80 bitrate=N/A speed=1.03x elapsed=0:02:32.60    frame= 2176 fps= 14 q=-1.0 size=N/A time=00:02:38.26 bitrate=N/A speed=1.03x elapsed=0:02:33.11    frame= 2184 fps= 14 q=-1.0 size=N/A time=00:02:38.80 bitrate=N/A speed=1.03x elapsed=0:02:33.61    frame= 2191 fps= 14 q=-1.0 size=N/A time=00:02:39.26 bitrate=N/A speed=1.03x elapsed=0:02:34.12    frame= 2199 fps= 14 q=-1.0 size=N/A time=00:02:39.80 bitrate=N/A speed=1.03x elapsed=0:02:34.62    frame= 2206 fps= 14 q=-1.0 size=N/A time=00:02:40.26 bitrate=N/A speed=1.03x elapsed=0:02:35.12    frame= 2214 fps= 14 q=-1.0 size=N/A time=00:02:40.80 bitrate=N/A speed=1.03x elapsed=0:02:35.63    frame= 2221 fps= 14 q=-1.0 size=N/A time=00:02:41.26 bitrate=N/A speed=1.03x elapsed=0:02:36.13    frame= 2229 fps= 14 q=-1.0 size=N/A time=00:02:41.80 bitrate=N/A speed=1.03x elapsed=0:02:36.64    frame= 2237 fps= 14 q=-1.0 size=N/A time=00:02:42.33 bitrate=N/A speed=1.03x elapsed=0:02:37.14    frame= 2244 fps= 14 q=-1.0 size=N/A time=00:02:42.80 bitrate=N/A speed=1.03x elapsed=0:02:37.64    [hls @ 0x15a105d80] Opening '/Users/DEEL/Luca/vibe_check/vibecheck-backend/hls/venue-003/index8.ts' for writing
[hls @ 0x15a105d80] Opening '/Users/DEEL/Luca/vibe_check/vibecheck-backend/hls/venue-003/index.m3u8.tmp' for writing
frame= 2252 fps= 14 q=-1.0 size=N/A time=00:02:43.33 bitrate=N/A speed=1.03x elapsed=0:02:38.15    frame= 2259 fps= 14 q=-1.0 size=N/A time=00:02:43.80 bitrate=N/A speed=1.03x elapsed=0:02:38.65    frame= 2267 fps= 14 q=-1.0 size=N/A time=00:02:44.33 bitrate=N/A speed=1.03x elapsed=0:02:39.15    frame= 2274 fps= 14 q=-1.0 size=N/A time=00:02:44.80 bitrate=N/A speed=1.03x elapsed=0:02:39.66    frame= 2282 fps= 14 q=-1.0 size=N/A time=00:02:45.33 bitrate=N/A speed=1.03x elapsed=0:02:40.16    frame= 2290 fps= 14 q=-1.0 size=N/A time=00:02:45.86 bitrate=N/A speed=1.03x elapsed=0:02:40.66    frame= 2297 fps= 14 q=-1.0 size=N/A time=00:02:46.33 bitrate=N/A speed=1.03x elapsed=0:02:41.17    frame= 2305 fps= 14 q=-1.0 size=N/A time=00:02:46.86 bitrate=N/A speed=1.03x elapsed=0:02:41.67    frame= 2312 fps= 14 q=-1.0 size=N/A time=00:02:47.33 bitrate=N/A speed=1.03x elapsed=0:02:42.17    frame= 2323 fps= 14 q=-1.0 size=N/A time=00:02:48.06 bitrate=N/A speed=1.03x elapsed=0:02:42.89    frame= 2332 fps= 14 q=-1.0 size=N/A time=00:02:48.66 bitrate=N/A speed=1.03x elapsed=0:02:43.48    frame= 2339 fps= 14 q=-1.0 size=N/A time=00:02:49.13 bitrate=N/A speed=1.03x elapsed=0:02:43.98    frame= 2347 fps= 14 q=-1.0 size=N/A time=00:02:49.66 bitrate=N/A speed=1.03x elapsed=0:02:44.49    frame= 2354 fps= 14 q=-1.0 size=N/A time=00:02:50.13 bitrate=N/A speed=1.03x elapsed=0:02:44.99    frame= 2362 fps= 14 q=-1.0 size=N/A time=00:02:50.66 bitrate=N/A speed=1.03x elapsed=0:02:45.49    frame= 2369 fps= 14 q=-1.0 size=N/A time=00:02:51.13 bitrate=N/A speed=1.03x elapsed=0:02:45.99    frame= 2377 fps= 14 q=-1.0 size=N/A time=00:02:51.66 bitrate=N/A speed=1.03x elapsed=0:02:46.50    frame= 2385 fps= 14 q=-1.0 size=N/A time=00:02:52.20 bitrate=N/A speed=1.03x elapsed=0:02:47.00    frame= 2392 fps= 14 q=-1.0 size=N/A time=00:02:52.66 bitrate=N/A speed=1.03x elapsed=0:02:47.50    frame= 2400 fps= 14 q=-1.0 size=N/A time=00:02:53.20 bitrate=N/A speed=1.03x elapsed=0:02:48.01    frame= 2407 fps= 14 q=-1.0 size=N/A time=00:02:53.66 bitrate=N/A speed=1.03x elapsed=0:02:48.51    frame= 2415 fps= 14 q=-1.0 size=N/A time=00:02:54.20 bitrate=N/A speed=1.03x elapsed=0:02:49.01    frame= 2422 fps= 14 q=-1.0 size=N/A time=00:02:54.66 bitrate=N/A speed=1.03x elapsed=0:02:49.51    frame= 2430 fps= 14 q=-1.0 size=N/A time=00:02:55.20 bitrate=N/A speed=1.03x elapsed=0:02:50.02    frame= 2437 fps= 14 q=-1.0 size=N/A time=00:02:55.66 bitrate=N/A speed=1.03x elapsed=0:02:50.52    frame= 2445 fps= 14 q=-1.0 size=N/A time=00:02:56.20 bitrate=N/A speed=1.03x elapsed=0:02:51.03    frame= 2453 fps= 14 q=-1.0 size=N/A time=00:02:56.73 bitrate=N/A speed=1.03x elapsed=0:02:51.53    frame= 2460 fps= 14 q=-1.0 size=N/A time=00:02:57.20 bitrate=N/A speed=1.03x elapsed=0:02:52.03    frame= 2468 fps= 14 q=-1.0 size=N/A time=00:02:57.73 bitrate=N/A speed=1.03x elapsed=0:02:52.53    frame= 2475 fps= 14 q=-1.0 size=N/A time=00:02:58.20 bitrate=N/A speed=1.03x elapsed=0:02:53.04    frame= 2483 fps= 14 q=-1.0 size=N/A time=00:02:58.73 bitrate=N/A speed=1.03x elapsed=0:02:53.54    frame= 2490 fps= 14 q=-1.0 size=N/A time=00:02:59.20 bitrate=N/A speed=1.03x elapsed=0:02:54.04    frame= 2498 fps= 14 q=-1.0 size=N/A time=00:02:59.73 bitrate=N/A speed=1.03x elapsed=0:02:54.55    [hls @ 0x15a105d80] Opening '/Users/DEEL/Luca/vibe_check/vibecheck-backend/hls/venue-003/index9.ts' for writing
[hls @ 0x15a105d80] Opening '/Users/DEEL/Luca/vibe_check/vibecheck-backend/hls/venue-003/index.m3u8.tmp' for writing
frame= 2505 fps= 14 q=-1.0 size=N/A time=00:03:00.20 bitrate=N/A speed=1.03x elapsed=0:02:55.05    frame= 2513 fps= 14 q=-1.0 size=N/A time=00:03:00.73 bitrate=N/A speed=1.03x elapsed=0:02:55.55    frame= 2520 fps= 14 q=-1.0 size=N/A time=00:03:01.20 bitrate=N/A speed=1.03x elapsed=0:02:56.06    frame= 2528 fps= 14 q=-1.0 size=N/A time=00:03:01.73 bitrate=N/A speed=1.03x elapsed=0:02:56.56    frame= 2536 fps= 14 q=-1.0 size=N/A time=00:03:02.26 bitrate=N/A speed=1.03x elapsed=0:02:57.06    frame= 2543 fps= 14 q=-1.0 size=N/A time=00:03:02.73 bitrate=N/A speed=1.03x elapsed=0:02:57.57    frame= 2551 fps= 14 q=-1.0 size=N/A time=00:03:03.26 bitrate=N/A speed=1.03x elapsed=0:02:58.07    frame= 2558 fps= 14 q=-1.0 size=N/A time=00:03:03.73 bitrate=N/A speed=1.03x elapsed=0:02:58.57    frame= 2566 fps= 14 q=-1.0 size=N/A time=00:03:04.26 bitrate=N/A speed=1.03x elapsed=0:02:59.08    frame= 2573 fps= 14 q=-1.0 size=N/A time=00:03:04.73 bitrate=N/A speed=1.03x elapsed=0:02:59.58    frame= 2581 fps= 14 q=-1.0 size=N/A time=00:03:05.26 bitrate=N/A speed=1.03x elapsed=0:03:00.09    frame= 2588 fps= 14 q=-1.0 size=N/A time=00:03:05.73 bitrate=N/A speed=1.03x elapsed=0:03:00.59    frame= 2596 fps= 14 q=-1.0 size=N/A time=00:03:06.26 bitrate=N/A speed=1.03x elapsed=0:03:01.09    frame= 2603 fps= 14 q=-1.0 size=N/A time=00:03:06.73 bitrate=N/A speed=1.03x elapsed=0:03:01.59    frame= 2611 fps= 14 q=-1.0 size=N/A time=00:03:07.26 bitrate=N/A speed=1.03x elapsed=0:03:02.09    frame= 2618 fps= 14 q=-1.0 size=N/A time=00:03:07.73 bitrate=N/A speed=1.03x elapsed=0:03:02.59    frame= 2626 fps= 14 q=-1.0 size=N/A time=00:03:08.26 bitrate=N/A speed=1.03x elapsed=0:03:03.09    frame= 2634 fps= 14 q=-1.0 size=N/A time=00:03:08.80 bitrate=N/A speed=1.03x elapsed=0:03:03.60    frame= 2641 fps= 14 q=-1.0 size=N/A time=00:03:09.26 bitrate=N/A speed=1.03x elapsed=0:03:04.11    frame= 2649 fps= 14 q=-1.0 size=N/A time=00:03:09.80 bitrate=N/A speed=1.03x elapsed=0:03:04.61    frame= 2656 fps= 14 q=-1.0 size=N/A time=00:03:10.26 bitrate=N/A speed=1.03x elapsed=0:03:05.12    frame= 2664 fps= 14 q=-1.0 size=N/A time=00:03:10.80 bitrate=N/A speed=1.03x elapsed=0:03:05.63    frame= 2672 fps= 14 q=-1.0 size=N/A time=00:03:11.33 bitrate=N/A speed=1.03x elapsed=0:03:06.13    frame= 2679 fps= 14 q=-1.0 size=N/A time=00:03:11.80 bitrate=N/A speed=1.03x elapsed=0:03:06.63    frame= 2687 fps= 14 q=-1.0 size=N/A time=00:03:12.33 bitrate=N/A speed=1.03x elapsed=0:03:07.14    frame= 2694 fps= 14 q=-1.0 size=N/A time=00:03:12.80 bitrate=N/A speed=1.03x elapsed=0:03:07.64    frame= 2702 fps= 14 q=-1.0 size=N/A time=00:03:13.33 bitrate=N/A speed=1.03x elapsed=0:03:08.14    frame= 2709 fps= 14 q=-1.0 size=N/A time=00:03:13.80 bitrate=N/A speed=1.03x elapsed=0:03:08.64    frame= 2717 fps= 14 q=-1.0 size=N/A time=00:03:14.33 bitrate=N/A speed=1.03x elapsed=0:03:09.15    frame= 2724 fps= 14 q=-1.0 size=N/A time=00:03:14.80 bitrate=N/A speed=1.03x elapsed=0:03:09.65    frame= 2732 fps= 14 q=-1.0 size=N/A time=00:03:15.33 bitrate=N/A speed=1.03x elapsed=0:03:10.15    frame= 2739 fps= 14 q=-1.0 size=N/A time=00:03:15.80 bitrate=N/A speed=1.03x elapsed=0:03:10.66    frame= 2747 fps= 14 q=-1.0 size=N/A time=00:03:16.33 bitrate=N/A speed=1.03x elapsed=0:03:11.16    [hls @ 0x15a105d80] Opening '/Users/DEEL/Luca/vibe_check/vibecheck-backend/hls/venue-003/index10.ts' for writing
[hls @ 0x15a105d80] Opening '/Users/DEEL/Luca/vibe_check/vibecheck-backend/hls/venue-003/index.m3u8.tmp' for writing
frame= 2755 fps= 14 q=-1.0 size=N/A time=00:03:16.86 bitrate=N/A speed=1.03x elapsed=0:03:11.67    frame= 2762 fps= 14 q=-1.0 size=N/A time=00:03:17.33 bitrate=N/A speed=1.03x elapsed=0:03:12.17    frame= 2770 fps= 14 q=-1.0 size=N/A time=00:03:17.86 bitrate=N/A speed=1.03x elapsed=0:03:12.68    frame= 2777 fps= 14 q=-1.0 size=N/A time=00:03:18.33 bitrate=N/A speed=1.03x elapsed=0:03:13.18    frame= 2785 fps= 14 q=-1.0 size=N/A time=00:03:18.86 bitrate=N/A speed=1.03x elapsed=0:03:13.69    frame= 2792 fps= 14 q=-1.0 size=N/A time=00:03:19.33 bitrate=N/A speed=1.03x elapsed=0:03:14.19    frame= 2800 fps= 14 q=-1.0 size=N/A time=00:03:19.86 bitrate=N/A speed=1.03x elapsed=0:03:14.69    frame= 2807 fps= 14 q=-1.0 size=N/A time=00:03:20.33 bitrate=N/A speed=1.03x elapsed=0:03:15.19    frame= 2815 fps= 14 q=-1.0 size=N/A time=00:03:20.86 bitrate=N/A speed=1.03x elapsed=0:03:15.70    frame= 2823 fps= 14 q=-1.0 size=N/A time=00:03:21.40 bitrate=N/A speed=1.03x elapsed=0:03:16.20    frame= 2830 fps= 14 q=-1.0 size=N/A time=00:03:21.86 bitrate=N/A speed=1.03x elapsed=0:03:16.71    frame= 2837 fps= 14 q=-1.0 size=N/A time=00:03:22.33 bitrate=N/A speed=1.03x elapsed=0:03:17.22    frame= 2845 fps= 14 q=-1.0 size=N/A time=00:03:22.86 bitrate=N/A speed=1.03x elapsed=0:03:17.73    frame= 2853 fps= 14 q=-1.0 size=N/A time=00:03:23.40 bitrate=N/A speed=1.03x elapsed=0:03:18.23    frame= 2861 fps= 14 q=-1.0 size=N/A time=00:03:23.93 bitrate=N/A speed=1.03x elapsed=0:03:18.74    frame= 2868 fps= 14 q=-1.0 size=N/A time=00:03:24.40 bitrate=N/A speed=1.03x elapsed=0:03:19.24    frame= 2876 fps= 14 q=-1.0 size=N/A time=00:03:24.93 bitrate=N/A speed=1.03x elapsed=0:03:19.74    frame= 2883 fps= 14 q=-1.0 size=N/A time=00:03:25.40 bitrate=N/A speed=1.03x elapsed=0:03:20.25    frame= 2891 fps= 14 q=-1.0 size=N/A time=00:03:25.93 bitrate=N/A speed=1.03x elapsed=0:03:20.75    frame= 2898 fps= 14 q=-1.0 size=N/A time=00:03:26.40 bitrate=N/A speed=1.03x elapsed=0:03:21.26    frame= 2906 fps= 14 q=-1.0 size=N/A time=00:03:26.93 bitrate=N/A speed=1.03x elapsed=0:03:21.76    frame= 2914 fps= 14 q=-1.0 size=N/A time=00:03:27.46 bitrate=N/A speed=1.03x elapsed=0:03:22.26    frame= 2921 fps= 14 q=-1.0 size=N/A time=00:03:27.93 bitrate=N/A speed=1.03x elapsed=0:03:22.77    frame= 2929 fps= 14 q=-1.0 size=N/A time=00:03:28.46 bitrate=N/A speed=1.03x elapsed=0:03:23.27    frame= 2936 fps= 14 q=-1.0 size=N/A time=00:03:28.93 bitrate=N/A speed=1.03x elapsed=0:03:23.77    frame= 2944 fps= 14 q=-1.0 size=N/A time=00:03:29.46 bitrate=N/A speed=1.03x elapsed=0:03:24.28    frame= 2951 fps= 14 q=-1.0 size=N/A time=00:03:29.93 bitrate=N/A speed=1.03x elapsed=0:03:24.78    frame= 2959 fps= 14 q=-1.0 size=N/A time=00:03:30.46 bitrate=N/A speed=1.03x elapsed=0:03:25.28    frame= 2966 fps= 14 q=-1.0 size=N/A time=00:03:30.93 bitrate=N/A speed=1.02x elapsed=0:03:25.79    frame= 2974 fps= 14 q=-1.0 size=N/A time=00:03:31.46 bitrate=N/A speed=1.03x elapsed=0:03:26.29    frame= 2981 fps= 14 q=-1.0 size=N/A time=00:03:31.93 bitrate=N/A speed=1.02x elapsed=0:03:26.79    frame= 2989 fps= 14 q=-1.0 size=N/A time=00:03:32.46 bitrate=N/A speed=1.02x elapsed=0:03:27.30    frame= 2997 fps= 14 q=-1.0 size=N/A time=00:03:33.00 bitrate=N/A speed=1.03x elapsed=0:03:27.80    [hls @ 0x15a105d80] Opening '/Users/DEEL/Luca/vibe_check/vibecheck-backend/hls/venue-003/index11.ts' for writing
[hls @ 0x15a105d80] Opening '/Users/DEEL/Luca/vibe_check/vibecheck-backend/hls/venue-003/index.m3u8.tmp' for writing
frame= 3004 fps= 14 q=-1.0 size=N/A time=00:03:33.46 bitrate=N/A speed=1.02x elapsed=0:03:28.30    frame= 3012 fps= 14 q=-1.0 size=N/A time=00:03:34.00 bitrate=N/A speed=1.02x elapsed=0:03:28.80    frame= 3019 fps= 14 q=-1.0 size=N/A time=00:03:34.46 bitrate=N/A speed=1.02x elapsed=0:03:29.31    frame= 3027 fps= 14 q=-1.0 size=N/A time=00:03:35.00 bitrate=N/A speed=1.02x elapsed=0:03:29.81    frame= 3034 fps= 14 q=-1.0 size=N/A time=00:03:35.46 bitrate=N/A speed=1.02x elapsed=0:03:30.31    frame= 3042 fps= 14 q=-1.0 size=N/A time=00:03:36.00 bitrate=N/A speed=1.02x elapsed=0:03:30.82    frame= 3049 fps= 14 q=-1.0 size=N/A time=00:03:36.46 bitrate=N/A speed=1.02x elapsed=0:03:31.32    frame= 3057 fps= 14 q=-1.0 size=N/A time=00:03:37.00 bitrate=N/A speed=1.02x elapsed=0:03:31.82    frame= 3065 fps= 14 q=-1.0 size=N/A time=00:03:37.53 bitrate=N/A speed=1.02x elapsed=0:03:32.33    frame= 3072 fps= 14 q=-1.0 size=N/A time=00:03:38.00 bitrate=N/A speed=1.02x elapsed=0:03:32.83    frame= 3080 fps= 14 q=-1.0 size=N/A time=00:03:38.53 bitrate=N/A speed=1.02x elapsed=0:03:33.33    frame= 3087 fps= 14 q=-1.0 size=N/A time=00:03:39.00 bitrate=N/A speed=1.02x elapsed=0:03:33.83    frame= 3095 fps= 14 q=-1.0 size=N/A time=00:03:39.53 bitrate=N/A speed=1.02x elapsed=0:03:34.34    frame= 3102 fps= 14 q=-1.0 size=N/A time=00:03:40.00 bitrate=N/A speed=1.02x elapsed=0:03:34.84    frame= 3110 fps= 14 q=-1.0 size=N/A time=00:03:40.53 bitrate=N/A speed=1.02x elapsed=0:03:35.34    frame= 3117 fps= 14 q=-1.0 size=N/A time=00:03:41.00 bitrate=N/A speed=1.02x elapsed=0:03:35.84    frame= 3125 fps= 14 q=-1.0 size=N/A time=00:03:41.53 bitrate=N/A speed=1.02x elapsed=0:03:36.35    frame= 3132 fps= 14 q=-1.0 size=N/A time=00:03:42.00 bitrate=N/A speed=1.02x elapsed=0:03:36.85    frame= 3140 fps= 14 q=-1.0 size=N/A time=00:03:42.53 bitrate=N/A speed=1.02x elapsed=0:03:37.36    frame= 3148 fps= 14 q=-1.0 size=N/A time=00:03:43.06 bitrate=N/A speed=1.02x elapsed=0:03:37.86    frame= 3155 fps= 14 q=-1.0 size=N/A time=00:03:43.53 bitrate=N/A speed=1.02x elapsed=0:03:38.37    frame= 3163 fps= 14 q=-1.0 size=N/A time=00:03:44.06 bitrate=N/A speed=1.02x elapsed=0:03:38.87    frame= 3170 fps= 14 q=-1.0 size=N/A time=00:03:44.53 bitrate=N/A speed=1.02x elapsed=0:03:39.38    frame= 3178 fps= 14 q=-1.0 size=N/A time=00:03:45.06 bitrate=N/A speed=1.02x elapsed=0:03:39.88    frame= 3185 fps= 14 q=-1.0 size=N/A time=00:03:45.53 bitrate=N/A speed=1.02x elapsed=0:03:40.38    frame= 3193 fps= 14 q=-1.0 size=N/A time=00:03:46.06 bitrate=N/A speed=1.02x elapsed=0:03:40.89    frame= 3200 fps= 14 q=-1.0 size=N/A time=00:03:46.53 bitrate=N/A speed=1.02x elapsed=0:03:41.39    frame= 3208 fps= 14 q=-1.0 size=N/A time=00:03:47.06 bitrate=N/A speed=1.02x elapsed=0:03:41.90    frame= 3216 fps= 14 q=-1.0 size=N/A time=00:03:47.60 bitrate=N/A speed=1.02x elapsed=0:03:42.40    frame= 3223 fps= 14 q=-1.0 size=N/A time=00:03:48.06 bitrate=N/A speed=1.02x elapsed=0:03:42.91    frame= 3231 fps= 14 q=-1.0 size=N/A time=00:03:48.60 bitrate=N/A speed=1.02x elapsed=0:03:43.41    frame= 3238 fps= 14 q=-1.0 size=N/A time=00:03:49.06 bitrate=N/A speed=1.02x elapsed=0:03:43.92    frame= 3246 fps= 14 q=-1.0 size=N/A time=00:03:49.60 bitrate=N/A speed=1.02x elapsed=0:03:44.43    [hls @ 0x15a105d80] Opening '/Users/DEEL/Luca/vibe_check/vibecheck-backend/hls/venue-003/index12.ts' for writing
[hls @ 0x15a105d80] Opening '/Users/DEEL/Luca/vibe_check/vibecheck-backend/hls/venue-003/index.m3u8.tmp' for writing
frame= 3253 fps= 14 q=-1.0 size=N/A time=00:03:50.06 bitrate=N/A speed=1.02x elapsed=0:03:44.93    frame= 3261 fps= 14 q=-1.0 size=N/A time=00:03:50.60 bitrate=N/A speed=1.02x elapsed=0:03:45.43    frame= 3269 fps= 14 q=-1.0 size=N/A time=00:03:51.13 bitrate=N/A speed=1.02x elapsed=0:03:45.93    frame= 3276 fps= 14 q=-1.0 size=N/A time=00:03:51.60 bitrate=N/A speed=1.02x elapsed=0:03:46.43    frame= 3284 fps= 14 q=-1.0 size=N/A time=00:03:52.13 bitrate=N/A speed=1.02x elapsed=0:03:46.94    frame= 3291 fps= 14 q=-1.0 size=N/A time=00:03:52.60 bitrate=N/A speed=1.02x elapsed=0:03:47.44    frame= 3299 fps= 14 q=-1.0 size=N/A time=00:03:53.13 bitrate=N/A speed=1.02x elapsed=0:03:47.94    frame= 3306 fps= 14 q=-1.0 size=N/A time=00:03:53.60 bitrate=N/A speed=1.02x elapsed=0:03:48.44    frame= 3314 fps= 14 q=-1.0 size=N/A time=00:03:54.13 bitrate=N/A speed=1.02x elapsed=0:03:48.95    frame= 3321 fps= 14 q=-1.0 size=N/A time=00:03:54.60 bitrate=N/A speed=1.02x elapsed=0:03:49.45    frame= 3329 fps= 14 q=-1.0 size=N/A time=00:03:55.13 bitrate=N/A speed=1.02x elapsed=0:03:49.96    frame= 3336 fps= 14 q=-1.0 size=N/A time=00:03:55.60 bitrate=N/A speed=1.02x elapsed=0:03:50.46    frame= 3344 fps= 14 q=-1.0 size=N/A time=00:03:56.13 bitrate=N/A speed=1.02x elapsed=0:03:50.97    frame= 3352 fps= 14 q=-1.0 size=N/A time=00:03:56.66 bitrate=N/A speed=1.02x elapsed=0:03:51.47    frame= 3359 fps= 14 q=-1.0 size=N/A time=00:03:57.13 bitrate=N/A speed=1.02x elapsed=0:03:51.97    frame= 3367 fps= 14 q=-1.0 size=N/A time=00:03:57.66 bitrate=N/A speed=1.02x elapsed=0:03:52.47    frame= 3374 fps= 14 q=-1.0 size=N/A time=00:03:58.13 bitrate=N/A speed=1.02x elapsed=0:03:52.97    frame= 3381 fps= 14 q=-1.0 size=N/A time=00:03:58.60 bitrate=N/A speed=1.02x elapsed=0:03:53.48    frame= 3389 fps= 14 q=-1.0 size=N/A time=00:03:59.13 bitrate=N/A speed=1.02x elapsed=0:03:53.98    frame= 3397 fps= 14 q=-1.0 size=N/A time=00:03:59.66 bitrate=N/A speed=1.02x elapsed=0:03:54.48    frame= 3404 fps= 14 q=-1.0 size=N/A time=00:04:00.13 bitrate=N/A speed=1.02x elapsed=0:03:54.99    frame= 3412 fps= 14 q=-1.0 size=N/A time=00:04:00.66 bitrate=N/A speed=1.02x elapsed=0:03:55.50    frame= 3420 fps= 14 q=-1.0 size=N/A time=00:04:01.20 bitrate=N/A speed=1.02x elapsed=0:03:56.00    frame= 3427 fps= 14 q=-1.0 size=N/A time=00:04:01.66 bitrate=N/A speed=1.02x elapsed=0:03:56.50    frame= 3435 fps= 14 q=-1.0 size=N/A time=00:04:02.20 bitrate=N/A speed=1.02x elapsed=0:03:57.01    frame= 3442 fps= 14 q=-1.0 size=N/A time=00:04:02.66 bitrate=N/A speed=1.02x elapsed=0:03:57.51    frame= 3450 fps= 14 q=-1.0 size=N/A time=00:04:03.20 bitrate=N/A speed=1.02x elapsed=0:03:58.01    frame= 3457 fps= 14 q=-1.0 size=N/A time=00:04:03.66 bitrate=N/A speed=1.02x elapsed=0:03:58.52    frame= 3464 fps= 14 q=-1.0 size=N/A time=00:04:04.13 bitrate=N/A speed=1.02x elapsed=0:03:59.02    frame= 3473 fps= 14 q=-1.0 size=N/A time=00:04:04.73 bitrate=N/A speed=1.02x elapsed=0:03:59.53    frame= 3480 fps= 14 q=-1.0 size=N/A time=00:04:05.20 bitrate=N/A speed=1.02x elapsed=0:04:00.04    frame= 3488 fps= 15 q=-1.0 size=N/A time=00:04:05.73 bitrate=N/A speed=1.02x elapsed=0:04:00.54    frame= 3495 fps= 14 q=-1.0 size=N/A time=00:04:06.20 bitrate=N/A speed=1.02x elapsed=0:04:01.05    [hls @ 0x15a105d80] Opening '/Users/DEEL/Luca/vibe_check/vibecheck-backend/hls/venue-003/index13.ts' for writing
[hls @ 0x15a105d80] Opening '/Users/DEEL/Luca/vibe_check/vibecheck-backend/hls/venue-003/index.m3u8.tmp' for writing
frame= 3503 fps= 15 q=-1.0 size=N/A time=00:04:06.73 bitrate=N/A speed=1.02x elapsed=0:04:01.56    frame= 3510 fps= 15 q=-1.0 size=N/A time=00:04:07.20 bitrate=N/A speed=1.02x elapsed=0:04:02.06    frame= 3518 fps= 15 q=-1.0 size=N/A time=00:04:07.73 bitrate=N/A speed=1.02x elapsed=0:04:02.56    frame= 3525 fps= 15 q=-1.0 size=N/A time=00:04:08.20 bitrate=N/A speed=1.02x elapsed=0:04:03.07    frame= 3533 fps= 15 q=-1.0 size=N/A time=00:04:08.73 bitrate=N/A speed=1.02x elapsed=0:04:03.58    frame= 3541 fps= 15 q=-1.0 size=N/A time=00:04:09.26 bitrate=N/A speed=1.02x elapsed=0:04:04.08    frame= 3548 fps= 15 q=-1.0 size=N/A time=00:04:09.73 bitrate=N/A speed=1.02x elapsed=0:04:04.58    frame= 3556 fps= 15 q=-1.0 size=N/A time=00:04:10.26 bitrate=N/A speed=1.02x elapsed=0:04:05.08    frame= 3563 fps= 15 q=-1.0 size=N/A time=00:04:10.73 bitrate=N/A speed=1.02x elapsed=0:04:05.58    frame= 3571 fps= 15 q=-1.0 size=N/A time=00:04:11.26 bitrate=N/A speed=1.02x elapsed=0:04:06.09    frame= 3578 fps= 15 q=-1.0 size=N/A time=00:04:11.73 bitrate=N/A speed=1.02x elapsed=0:04:06.59    frame= 3586 fps= 15 q=-1.0 size=N/A time=00:04:12.26 bitrate=N/A speed=1.02x elapsed=0:04:07.09    frame= 3593 fps= 15 q=-1.0 size=N/A time=00:04:12.73 bitrate=N/A speed=1.02x elapsed=0:04:07.59    frame= 3601 fps= 15 q=-1.0 size=N/A time=00:04:13.26 bitrate=N/A speed=1.02x elapsed=0:04:08.10    frame= 3609 fps= 15 q=-1.0 size=N/A time=00:04:13.80 bitrate=N/A speed=1.02x elapsed=0:04:08.60    frame= 3616 fps= 15 q=-1.0 size=N/A time=00:04:14.26 bitrate=N/A speed=1.02x elapsed=0:04:09.11    frame= 3624 fps= 15 q=-1.0 size=N/A time=00:04:14.80 bitrate=N/A speed=1.02x elapsed=0:04:09.61    frame= 3631 fps= 15 q=-1.0 size=N/A time=00:04:15.26 bitrate=N/A speed=1.02x elapsed=0:04:10.11    frame= 3639 fps= 15 q=-1.0 size=N/A time=00:04:15.80 bitrate=N/A speed=1.02x elapsed=0:04:10.62    frame= 3646 fps= 15 q=-1.0 size=N/A time=00:04:16.26 bitrate=N/A speed=1.02x elapsed=0:04:11.12    frame= 3654 fps= 15 q=-1.0 size=N/A time=00:04:16.80 bitrate=N/A speed=1.02x elapsed=0:04:11.62    frame= 3661 fps= 15 q=-1.0 size=N/A time=00:04:17.26 bitrate=N/A speed=1.02x elapsed=0:04:12.13    frame= 3669 fps= 15 q=-1.0 size=N/A time=00:04:17.80 bitrate=N/A speed=1.02x elapsed=0:04:12.63    frame= 3676 fps= 15 q=-1.0 size=N/A time=00:04:18.26 bitrate=N/A speed=1.02x elapsed=0:04:13.13    frame= 3684 fps= 15 q=-1.0 size=N/A time=00:04:18.80 bitrate=N/A speed=1.02x elapsed=0:04:13.63    frame= 3692 fps= 15 q=-1.0 size=N/A time=00:04:19.33 bitrate=N/A speed=1.02x elapsed=0:04:14.14    frame= 3699 fps= 15 q=-1.0 size=N/A time=00:04:19.80 bitrate=N/A speed=1.02x elapsed=0:04:14.64    frame= 3707 fps= 15 q=-1.0 size=N/A time=00:04:20.33 bitrate=N/A speed=1.02x elapsed=0:04:15.15    frame= 3714 fps= 15 q=-1.0 size=N/A time=00:04:20.80 bitrate=N/A speed=1.02x elapsed=0:04:15.65    frame= 3722 fps= 15 q=-1.0 size=N/A time=00:04:21.33 bitrate=N/A speed=1.02x elapsed=0:04:16.15    frame= 3729 fps= 15 q=-1.0 size=N/A time=00:04:21.80 bitrate=N/A speed=1.02x elapsed=0:04:16.65    frame= 3737 fps= 15 q=-1.0 size=N/A time=00:04:22.33 bitrate=N/A speed=1.02x elapsed=0:04:17.15    frame= 3744 fps= 15 q=-1.0 size=N/A time=00:04:22.80 bitrate=N/A speed=1.02x elapsed=0:04:17.66    [hls @ 0x15a105d80] Opening '/Users/DEEL/Luca/vibe_check/vibecheck-backend/hls/venue-003/index14.ts' for writing
[hls @ 0x15a105d80] Opening '/Users/DEEL/Luca/vibe_check/vibecheck-backend/hls/venue-003/index.m3u8.tmp' for writing
frame= 3752 fps= 15 q=-1.0 size=N/A time=00:04:23.33 bitrate=N/A speed=1.02x elapsed=0:04:18.16    frame= 3760 fps= 15 q=-1.0 size=N/A time=00:04:23.86 bitrate=N/A speed=1.02x elapsed=0:04:18.66    frame= 3767 fps= 15 q=-1.0 size=N/A time=00:04:24.33 bitrate=N/A speed=1.02x elapsed=0:04:19.17    frame= 3774 fps= 15 q=-1.0 size=N/A time=00:04:24.80 bitrate=N/A speed=1.02x elapsed=0:04:19.67    frame= 3782 fps= 15 q=-1.0 size=N/A time=00:04:25.33 bitrate=N/A speed=1.02x elapsed=0:04:20.17    frame= 3790 fps= 15 q=-1.0 size=N/A time=00:04:25.86 bitrate=N/A speed=1.02x elapsed=0:04:20.68    frame= 3797 fps= 15 q=-1.0 size=N/A time=00:04:26.33 bitrate=N/A speed=1.02x elapsed=0:04:21.18    frame= 3805 fps= 15 q=-1.0 size=N/A time=00:04:26.86 bitrate=N/A speed=1.02x elapsed=0:04:21.69    frame= 3812 fps= 15 q=-1.0 size=N/A time=00:04:27.33 bitrate=N/A speed=1.02x elapsed=0:04:22.19    frame= 3820 fps= 15 q=-1.0 size=N/A time=00:04:27.86 bitrate=N/A speed=1.02x elapsed=0:04:22.69    frame= 3828 fps= 15 q=-1.0 size=N/A time=00:04:28.40 bitrate=N/A speed=1.02x elapsed=0:04:23.20    frame= 3835 fps= 15 q=-1.0 size=N/A time=00:04:28.86 bitrate=N/A speed=1.02x elapsed=0:04:23.70    frame= 3843 fps= 15 q=-1.0 size=N/A time=00:04:29.40 bitrate=N/A speed=1.02x elapsed=0:04:24.20    frame= 3850 fps= 15 q=-1.0 size=N/A time=00:04:29.86 bitrate=N/A speed=1.02x elapsed=0:04:24.71    frame= 3858 fps= 15 q=-1.0 size=N/A time=00:04:30.40 bitrate=N/A speed=1.02x elapsed=0:04:25.21    frame= 3865 fps= 15 q=-1.0 size=N/A time=00:04:30.86 bitrate=N/A speed=1.02x elapsed=0:04:25.71    frame= 3873 fps= 15 q=-1.0 size=N/A time=00:04:31.40 bitrate=N/A speed=1.02x elapsed=0:04:26.22    frame= 3880 fps= 15 q=-1.0 size=N/A time=00:04:31.86 bitrate=N/A speed=1.02x elapsed=0:04:26.72    frame= 3888 fps= 15 q=-1.0 size=N/A time=00:04:32.40 bitrate=N/A speed=1.02x elapsed=0:04:27.22    frame= 3895 fps= 15 q=-1.0 size=N/A time=00:04:32.86 bitrate=N/A speed=1.02x elapsed=0:04:27.73    frame= 3903 fps= 15 q=-1.0 size=N/A time=00:04:33.40 bitrate=N/A speed=1.02x elapsed=0:04:28.23    frame= 3911 fps= 15 q=-1.0 size=N/A time=00:04:33.93 bitrate=N/A speed=1.02x elapsed=0:04:28.73    frame= 3918 fps= 15 q=-1.0 size=N/A time=00:04:34.40 bitrate=N/A speed=1.02x elapsed=0:04:29.23    frame= 3926 fps= 15 q=-1.0 size=N/A time=00:04:34.93 bitrate=N/A speed=1.02x elapsed=0:04:29.74    frame= 3933 fps= 15 q=-1.0 size=N/A time=00:04:35.40 bitrate=N/A speed=1.02x elapsed=0:04:30.24    frame= 3941 fps= 15 q=-1.0 size=N/A time=00:04:35.93 bitrate=N/A speed=1.02x elapsed=0:04:30.74    frame= 3948 fps= 15 q=-1.0 size=N/A time=00:04:36.40 bitrate=N/A speed=1.02x elapsed=0:04:31.24    frame= 3956 fps= 15 q=-1.0 size=N/A time=00:04:36.93 bitrate=N/A speed=1.02x elapsed=0:04:31.74    frame= 3963 fps= 15 q=-1.0 size=N/A time=00:04:37.40 bitrate=N/A speed=1.02x elapsed=0:04:32.25    frame= 3971 fps= 15 q=-1.0 size=N/A time=00:04:37.93 bitrate=N/A speed=1.02x elapsed=0:04:32.76    frame= 3979 fps= 15 q=-1.0 size=N/A time=00:04:38.46 bitrate=N/A speed=1.02x elapsed=0:04:33.26    frame= 3986 fps= 15 q=-1.0 size=N/A time=00:04:38.93 bitrate=N/A speed=1.02x elapsed=0:04:33.77    frame= 3994 fps= 15 q=-1.0 size=N/A time=00:04:39.46 bitrate=N/A speed=1.02x elapsed=0:04:34.28    [hls @ 0x15a105d80] Opening '/Users/DEEL/Luca/vibe_check/vibecheck-backend/hls/venue-003/index15.ts' for writing
[hls @ 0x15a105d80] Opening '/Users/DEEL/Luca/vibe_check/vibecheck-backend/hls/venue-003/index.m3u8.tmp' for writing
frame= 4001 fps= 15 q=-1.0 size=N/A time=00:04:39.93 bitrate=N/A speed=1.02x elapsed=0:04:34.79    frame= 4009 fps= 15 q=-1.0 size=N/A time=00:04:40.46 bitrate=N/A speed=1.02x elapsed=0:04:35.29    frame= 4016 fps= 15 q=-1.0 size=N/A time=00:04:40.93 bitrate=N/A speed=1.02x elapsed=0:04:35.79    frame= 4024 fps= 15 q=-1.0 size=N/A time=00:04:41.46 bitrate=N/A speed=1.02x elapsed=0:04:36.30    frame= 4032 fps= 15 q=-1.0 size=N/A time=00:04:42.00 bitrate=N/A speed=1.02x elapsed=0:04:36.80    frame= 4039 fps= 15 q=-1.0 size=N/A time=00:04:42.46 bitrate=N/A speed=1.02x elapsed=0:04:37.30    frame= 4047 fps= 15 q=-1.0 size=N/A time=00:04:43.00 bitrate=N/A speed=1.02x elapsed=0:04:37.80    frame= 4054 fps= 15 q=-1.0 size=N/A time=00:04:43.46 bitrate=N/A speed=1.02x elapsed=0:04:38.31    frame= 4062 fps= 15 q=-1.0 size=N/A time=00:04:44.00 bitrate=N/A speed=1.02x elapsed=0:04:38.82    frame= 4069 fps= 15 q=-1.0 size=N/A time=00:04:44.46 bitrate=N/A speed=1.02x elapsed=0:04:39.32    frame= 4077 fps= 15 q=-1.0 size=N/A time=00:04:45.00 bitrate=N/A speed=1.02x elapsed=0:04:39.82    frame= 4084 fps= 15 q=-1.0 size=N/A time=00:04:45.46 bitrate=N/A speed=1.02x elapsed=0:04:40.33    frame= 4092 fps= 15 q=-1.0 size=N/A time=00:04:46.00 bitrate=N/A speed=1.02x elapsed=0:04:40.83    frame= 4100 fps= 15 q=-1.0 size=N/A time=00:04:46.53 bitrate=N/A speed=1.02x elapsed=0:04:41.34    frame= 4107 fps= 15 q=-1.0 size=N/A time=00:04:47.00 bitrate=N/A speed=1.02x elapsed=0:04:41.84    frame= 4115 fps= 15 q=-1.0 size=N/A time=00:04:47.53 bitrate=N/A speed=1.02x elapsed=0:04:42.34    frame= 4122 fps= 15 q=-1.0 size=N/A time=00:04:48.00 bitrate=N/A speed=1.02x elapsed=0:04:42.84    frame= 4130 fps= 15 q=-1.0 size=N/A time=00:04:48.53 bitrate=N/A speed=1.02x elapsed=0:04:43.35    frame= 4137 fps= 15 q=-1.0 size=N/A time=00:04:49.00 bitrate=N/A speed=1.02x elapsed=0:04:43.85    frame= 4145 fps= 15 q=-1.0 size=N/A time=00:04:49.53 bitrate=N/A speed=1.02x elapsed=0:04:44.35    frame= 4152 fps= 15 q=-1.0 size=N/A time=00:04:50.00 bitrate=N/A speed=1.02x elapsed=0:04:44.86    frame= 4160 fps= 15 q=-1.0 size=N/A time=00:04:50.53 bitrate=N/A speed=1.02x elapsed=0:04:45.36    frame= 4168 fps= 15 q=-1.0 size=N/A time=00:04:51.06 bitrate=N/A speed=1.02x elapsed=0:04:45.86    frame= 4175 fps= 15 q=-1.0 size=N/A time=00:04:51.53 bitrate=N/A speed=1.02x elapsed=0:04:46.37    frame= 4183 fps= 15 q=-1.0 size=N/A time=00:04:52.06 bitrate=N/A speed=1.02x elapsed=0:04:46.87    frame= 4190 fps= 15 q=-1.0 size=N/A time=00:04:52.53 bitrate=N/A speed=1.02x elapsed=0:04:47.37    frame= 4198 fps= 15 q=-1.0 size=N/A time=00:04:53.06 bitrate=N/A speed=1.02x elapsed=0:04:47.88    frame= 4205 fps= 15 q=-1.0 size=N/A time=00:04:53.53 bitrate=N/A speed=1.02x elapsed=0:04:48.38    frame= 4213 fps= 15 q=-1.0 size=N/A time=00:04:54.06 bitrate=N/A speed=1.02x elapsed=0:04:48.89    frame= 4220 fps= 15 q=-1.0 size=N/A time=00:04:54.53 bitrate=N/A speed=1.02x elapsed=0:04:49.39    frame= 4228 fps= 15 q=-1.0 size=N/A time=00:04:55.06 bitrate=N/A speed=1.02x elapsed=0:04:49.89    frame= 4236 fps= 15 q=-1.0 size=N/A time=00:04:55.60 bitrate=N/A speed=1.02x elapsed=0:04:50.40    frame= 4243 fps= 15 q=-1.0 size=N/A time=00:04:56.06 bitrate=N/A speed=1.02x elapsed=0:04:50.90    [hls @ 0x15a105d80] Opening '/Users/DEEL/Luca/vibe_check/vibecheck-backend/hls/venue-003/index16.ts' for writing
[hls @ 0x15a105d80] Opening '/Users/DEEL/Luca/vibe_check/vibecheck-backend/hls/venue-003/index.m3u8.tmp' for writing
frame= 4251 fps= 15 q=-1.0 size=N/A time=00:04:56.60 bitrate=N/A speed=1.02x elapsed=0:04:51.40    frame= 4258 fps= 15 q=-1.0 size=N/A time=00:04:57.06 bitrate=N/A speed=1.02x elapsed=0:04:51.90    frame= 4266 fps= 15 q=-1.0 size=N/A time=00:04:57.60 bitrate=N/A speed=1.02x elapsed=0:04:52.41    frame= 4273 fps= 15 q=-1.0 size=N/A time=00:04:58.06 bitrate=N/A speed=1.02x elapsed=0:04:52.92    frame= 4281 fps= 15 q=-1.0 size=N/A time=00:04:58.60 bitrate=N/A speed=1.02x elapsed=0:04:53.42    frame= 4288 fps= 15 q=-1.0 size=N/A time=00:04:59.06 bitrate=N/A speed=1.02x elapsed=0:04:53.92    frame= 4296 fps= 15 q=-1.0 size=N/A time=00:04:59.60 bitrate=N/A speed=1.02x elapsed=0:04:54.42    frame= 4303 fps= 15 q=-1.0 size=N/A time=00:05:00.06 bitrate=N/A speed=1.02x elapsed=0:04:54.92    frame= 4311 fps= 15 q=-1.0 size=N/A time=00:05:00.60 bitrate=N/A speed=1.02x elapsed=0:04:55.43    frame= 4319 fps= 15 q=-1.0 size=N/A time=00:05:01.13 bitrate=N/A speed=1.02x elapsed=0:04:55.93    frame= 4326 fps= 15 q=-1.0 size=N/A time=00:05:01.60 bitrate=N/A speed=1.02x elapsed=0:04:56.43    frame= 4334 fps= 15 q=-1.0 size=N/A time=00:05:02.13 bitrate=N/A speed=1.02x elapsed=0:04:56.94    frame= 4341 fps= 15 q=-1.0 size=N/A time=00:05:02.60 bitrate=N/A speed=1.02x elapsed=0:04:57.44    frame= 4349 fps= 15 q=-1.0 size=N/A time=00:05:03.13 bitrate=N/A speed=1.02x elapsed=0:04:57.94    frame= 4356 fps= 15 q=-1.0 size=N/A time=00:05:03.60 bitrate=N/A speed=1.02x elapsed=0:04:58.44    frame= 4364 fps= 15 q=-1.0 size=N/A time=00:05:04.13 bitrate=N/A speed=1.02x elapsed=0:04:58.95    frame= 4371 fps= 15 q=-1.0 size=N/A time=00:05:04.60 bitrate=N/A speed=1.02x elapsed=0:04:59.45    frame= 4379 fps= 15 q=-1.0 size=N/A time=00:05:05.13 bitrate=N/A speed=1.02x elapsed=0:04:59.95    frame= 4386 fps= 15 q=-1.0 size=N/A time=00:05:05.60 bitrate=N/A speed=1.02x elapsed=0:05:00.46    frame= 4394 fps= 15 q=-1.0 size=N/A time=00:05:06.13 bitrate=N/A speed=1.02x elapsed=0:05:00.96    frame= 4402 fps= 15 q=-1.0 size=N/A time=00:05:06.66 bitrate=N/A speed=1.02x elapsed=0:05:01.46    frame= 4409 fps= 15 q=-1.0 size=N/A time=00:05:07.13 bitrate=N/A speed=1.02x elapsed=0:05:01.96    frame= 4417 fps= 15 q=-1.0 size=N/A time=00:05:07.66 bitrate=N/A speed=1.02x elapsed=0:05:02.47    frame= 4424 fps= 15 q=-1.0 size=N/A time=00:05:08.13 bitrate=N/A speed=1.02x elapsed=0:05:02.97    frame= 4432 fps= 15 q=-1.0 size=N/A time=00:05:08.66 bitrate=N/A speed=1.02x elapsed=0:05:03.48    frame= 4439 fps= 15 q=-1.0 size=N/A time=00:05:09.13 bitrate=N/A speed=1.02x elapsed=0:05:03.98    frame= 4447 fps= 15 q=-1.0 size=N/A time=00:05:09.66 bitrate=N/A speed=1.02x elapsed=0:05:04.48    frame= 4454 fps= 15 q=-1.0 size=N/A time=00:05:10.13 bitrate=N/A speed=1.02x elapsed=0:05:04.99    frame= 4462 fps= 15 q=-1.0 size=N/A time=00:05:10.66 bitrate=N/A speed=1.02x elapsed=0:05:05.49    frame= 4469 fps= 15 q=-1.0 size=N/A time=00:05:11.13 bitrate=N/A speed=1.02x elapsed=0:05:06.00    frame= 4477 fps= 15 q=-1.0 size=N/A time=00:05:11.66 bitrate=N/A speed=1.02x elapsed=0:05:06.50    frame= 4485 fps= 15 q=-1.0 size=N/A time=00:05:12.20 bitrate=N/A speed=1.02x elapsed=0:05:07.01    frame= 4492 fps= 15 q=-1.0 size=N/A time=00:05:12.66 bitrate=N/A speed=1.02x elapsed=0:05:07.51    frame= 4500 fps= 15 q=-1.0 size=N/A time=00:05:13.20 bitrate=N/A speed=1.02x elapsed=0:05:08.01    [hls @ 0x15a105d80] Opening '/Users/DEEL/Luca/vibe_check/vibecheck-backend/hls/venue-003/index17.ts' for writing
[hls @ 0x15a105d80] Opening '/Users/DEEL/Luca/vibe_check/vibecheck-backend/hls/venue-003/index.m3u8.tmp' for writing
frame= 4507 fps= 15 q=-1.0 size=N/A time=00:05:13.66 bitrate=N/A speed=1.02x elapsed=0:05:08.52    frame= 4515 fps= 15 q=-1.0 size=N/A time=00:05:14.20 bitrate=N/A speed=1.02x elapsed=0:05:09.02    frame= 4522 fps= 15 q=-1.0 size=N/A time=00:05:14.66 bitrate=N/A speed=1.02x elapsed=0:05:09.52    frame= 4530 fps= 15 q=-1.0 size=N/A time=00:05:15.20 bitrate=N/A speed=1.02x elapsed=0:05:10.03    frame= 4538 fps= 15 q=-1.0 size=N/A time=00:05:15.73 bitrate=N/A speed=1.02x elapsed=0:05:10.53    frame= 4545 fps= 15 q=-1.0 size=N/A time=00:05:16.20 bitrate=N/A speed=1.02x elapsed=0:05:11.03    frame= 4553 fps= 15 q=-1.0 size=N/A time=00:05:16.73 bitrate=N/A speed=1.02x elapsed=0:05:11.54    frame= 4560 fps= 15 q=-1.0 size=N/A time=00:05:17.20 bitrate=N/A speed=1.02x elapsed=0:05:12.04    frame= 4568 fps= 15 q=-1.0 size=N/A time=00:05:17.73 bitrate=N/A speed=1.02x elapsed=0:05:12.54    frame= 4575 fps= 15 q=-1.0 size=N/A time=00:05:18.20 bitrate=N/A speed=1.02x elapsed=0:05:13.04    frame= 4583 fps= 15 q=-1.0 size=N/A time=00:05:18.73 bitrate=N/A speed=1.02x elapsed=0:05:13.55    frame= 4590 fps= 15 q=-1.0 size=N/A time=00:05:19.20 bitrate=N/A speed=1.02x elapsed=0:05:14.05    frame= 4598 fps= 15 q=-1.0 size=N/A time=00:05:19.73 bitrate=N/A speed=1.02x elapsed=0:05:14.56    frame= 4605 fps= 15 q=-1.0 size=N/A time=00:05:20.20 bitrate=N/A speed=1.02x elapsed=0:05:15.06    frame= 4613 fps= 15 q=-1.0 size=N/A time=00:05:20.73 bitrate=N/A speed=1.02x elapsed=0:05:15.56    frame= 4621 fps= 15 q=-1.0 size=N/A time=00:05:21.26 bitrate=N/A speed=1.02x elapsed=0:05:16.06    frame= 4628 fps= 15 q=-1.0 size=N/A time=00:05:21.73 bitrate=N/A speed=1.02x elapsed=0:05:16.57    frame= 4636 fps= 15 q=-1.0 size=N/A time=00:05:22.26 bitrate=N/A speed=1.02x elapsed=0:05:17.07    frame= 4643 fps= 15 q=-1.0 size=N/A time=00:05:22.73 bitrate=N/A speed=1.02x elapsed=0:05:17.58    frame= 4651 fps= 15 q=-1.0 size=N/A time=00:05:23.26 bitrate=N/A speed=1.02x elapsed=0:05:18.08    frame= 4658 fps= 15 q=-1.0 size=N/A time=00:05:23.73 bitrate=N/A speed=1.02x elapsed=0:05:18.59    frame= 4666 fps= 15 q=-1.0 size=N/A time=00:05:24.26 bitrate=N/A speed=1.02x elapsed=0:05:19.09    frame= 4674 fps= 15 q=-1.0 size=N/A time=00:05:24.80 bitrate=N/A speed=1.02x elapsed=0:05:19.59    frame= 4681 fps= 15 q=-1.0 size=N/A time=00:05:25.26 bitrate=N/A speed=1.02x elapsed=0:05:20.09    frame= 4689 fps= 15 q=-1.0 size=N/A time=00:05:25.80 bitrate=N/A speed=1.02x elapsed=0:05:20.60    frame= 4696 fps= 15 q=-1.0 size=N/A time=00:05:26.26 bitrate=N/A speed=1.02x elapsed=0:05:21.10    frame= 4704 fps= 15 q=-1.0 size=N/A time=00:05:26.80 bitrate=N/A speed=1.02x elapsed=0:05:21.61    frame= 4711 fps= 15 q=-1.0 size=N/A time=00:05:27.26 bitrate=N/A speed=1.02x elapsed=0:05:22.11    frame= 4719 fps= 15 q=-1.0 size=N/A time=00:05:27.80 bitrate=N/A speed=1.02x elapsed=0:05:22.62    frame= 4726 fps= 15 q=-1.0 size=N/A time=00:05:28.26 bitrate=N/A speed=1.02x elapsed=0:05:23.12    frame= 4734 fps= 15 q=-1.0 size=N/A time=00:05:28.80 bitrate=N/A speed=1.02x elapsed=0:05:23.62    frame= 4741 fps= 15 q=-1.0 size=N/A time=00:05:29.26 bitrate=N/A speed=1.02x elapsed=0:05:24.12    frame= 4749 fps= 15 q=-1.0 size=N/A time=00:05:29.80 bitrate=N/A speed=1.02x elapsed=0:05:24.63    [hls @ 0x15a105d80] Opening '/Users/DEEL/Luca/vibe_check/vibecheck-backend/hls/venue-003/index18.ts' for writing
[hls @ 0x15a105d80] Opening '/Users/DEEL/Luca/vibe_check/vibecheck-backend/hls/venue-003/index.m3u8.tmp' for writing
frame= 4754 fps= 15 q=-1.0 size=N/A time=00:05:30.13 bitrate=N/A speed=1.02x elapsed=0:05:25.14    frame= 4764 fps= 15 q=-1.0 size=N/A time=00:05:30.80 bitrate=N/A speed=1.02x elapsed=0:05:25.64    frame= 4772 fps= 15 q=-1.0 size=N/A time=00:05:31.33 bitrate=N/A speed=1.02x elapsed=0:05:26.14    frame= 4779 fps= 15 q=-1.0 size=N/A time=00:05:31.80 bitrate=N/A speed=1.02x elapsed=0:05:26.65    frame= 4787 fps= 15 q=-1.0 size=N/A time=00:05:32.33 bitrate=N/A speed=1.02x elapsed=0:05:27.15    frame= 4794 fps= 15 q=-1.0 size=N/A time=00:05:32.80 bitrate=N/A speed=1.02x elapsed=0:05:27.65    frame= 4802 fps= 15 q=-1.0 size=N/A time=00:05:33.33 bitrate=N/A speed=1.02x elapsed=0:05:28.15    frame= 4809 fps= 15 q=-1.0 size=N/A time=00:05:33.80 bitrate=N/A speed=1.02x elapsed=0:05:28.65    frame= 4817 fps= 15 q=-1.0 size=N/A time=00:05:34.33 bitrate=N/A speed=1.02x elapsed=0:05:29.15    frame= 4824 fps= 15 q=-1.0 size=N/A time=00:05:34.80 bitrate=N/A speed=1.02x elapsed=0:05:29.66    frame= 4832 fps= 15 q=-1.0 size=N/A time=00:05:35.33 bitrate=N/A speed=1.02x elapsed=0:05:30.16    frame= 4840 fps= 15 q=-1.0 size=N/A time=00:05:35.86 bitrate=N/A speed=1.02x elapsed=0:05:30.67    frame= 4847 fps= 15 q=-1.0 size=N/A time=00:05:36.33 bitrate=N/A speed=1.02x elapsed=0:05:31.17    frame= 4855 fps= 15 q=-1.0 size=N/A time=00:05:36.86 bitrate=N/A speed=1.02x elapsed=0:05:31.68    frame= 4862 fps= 15 q=-1.0 size=N/A time=00:05:37.33 bitrate=N/A speed=1.02x elapsed=0:05:32.18    frame= 4870 fps= 15 q=-1.0 size=N/A time=00:05:37.86 bitrate=N/A speed=1.02x elapsed=0:05:32.68    frame= 4877 fps= 15 q=-1.0 size=N/A time=00:05:38.33 bitrate=N/A speed=1.02x elapsed=0:05:33.19    frame= 4885 fps= 15 q=-1.0 size=N/A time=00:05:38.86 bitrate=N/A speed=1.02x elapsed=0:05:33.69    frame= 4892 fps= 15 q=-1.0 size=N/A time=00:05:39.33 bitrate=N/A speed=1.02x elapsed=0:05:34.20    frame= 4900 fps= 15 q=-1.0 size=N/A time=00:05:39.86 bitrate=N/A speed=1.02x elapsed=0:05:34.70    frame= 4908 fps= 15 q=-1.0 size=N/A time=00:05:40.40 bitrate=N/A speed=1.02x elapsed=0:05:35.20    frame= 4915 fps= 15 q=-1.0 size=N/A time=00:05:40.86 bitrate=N/A speed=1.02x elapsed=0:05:35.70    frame= 4923 fps= 15 q=-1.0 size=N/A time=00:05:41.40 bitrate=N/A speed=1.02x elapsed=0:05:36.21    frame= 4930 fps= 15 q=-1.0 size=N/A time=00:05:41.86 bitrate=N/A speed=1.02x elapsed=0:05:36.71    frame= 4938 fps= 15 q=-1.0 size=N/A time=00:05:42.40 bitrate=N/A speed=1.02x elapsed=0:05:37.21    frame= 4945 fps= 15 q=-1.0 size=N/A time=00:05:42.86 bitrate=N/A speed=1.02x elapsed=0:05:37.72    frame= 4952 fps= 15 q=-1.0 size=N/A time=00:05:43.33 bitrate=N/A speed=1.02x elapsed=0:05:38.23    frame= 4961 fps= 15 q=-1.0 size=N/A time=00:05:43.93 bitrate=N/A speed=1.02x elapsed=0:05:38.73    frame= 4968 fps= 15 q=-1.0 size=N/A time=00:05:44.40 bitrate=N/A speed=1.02x elapsed=0:05:39.24    frame= 4976 fps= 15 q=-1.0 size=N/A time=00:05:44.93 bitrate=N/A speed=1.02x elapsed=0:05:39.74    frame= 4983 fps= 15 q=-1.0 size=N/A time=00:05:45.40 bitrate=N/A speed=1.02x elapsed=0:05:40.25    frame= 4991 fps= 15 q=-1.0 size=N/A time=00:05:45.93 bitrate=N/A speed=1.02x elapsed=0:05:40.75    frame= 4998 fps= 15 q=-1.0 size=N/A time=00:05:46.40 bitrate=N/A speed=1.02x elapsed=0:05:41.25    [hls @ 0x15a105d80] Opening '/Users/DEEL/Luca/vibe_check/vibecheck-backend/hls/venue-003/index19.ts' for writing
[hls @ 0x15a105d80] Opening '/Users/DEEL/Luca/vibe_check/vibecheck-backend/hls/venue-003/index.m3u8.tmp' for writing
frame= 5006 fps= 15 q=-1.0 size=N/A time=00:05:46.93 bitrate=N/A speed=1.02x elapsed=0:05:41.75    frame= 5013 fps= 15 q=-1.0 size=N/A time=00:05:47.40 bitrate=N/A speed=1.02x elapsed=0:05:42.26    frame= 5021 fps= 15 q=-1.0 size=N/A time=00:05:47.93 bitrate=N/A speed=1.02x elapsed=0:05:42.76    frame= 5029 fps= 15 q=-1.0 size=N/A time=00:05:48.46 bitrate=N/A speed=1.02x elapsed=0:05:43.27    frame= 5036 fps= 15 q=-1.0 size=N/A time=00:05:48.93 bitrate=N/A speed=1.02x elapsed=0:05:43.77    frame= 5044 fps= 15 q=-1.0 size=N/A time=00:05:49.46 bitrate=N/A speed=1.02x elapsed=0:05:44.27    frame= 5051 fps= 15 q=-1.0 size=N/A time=00:05:49.93 bitrate=N/A speed=1.01x elapsed=0:05:44.77    frame= 5059 fps= 15 q=-1.0 size=N/A time=00:05:50.46 bitrate=N/A speed=1.02x elapsed=0:05:45.28    frame= 5066 fps= 15 q=-1.0 size=N/A time=00:05:50.93 bitrate=N/A speed=1.01x elapsed=0:05:45.78    frame= 5074 fps= 15 q=-1.0 size=N/A time=00:05:51.46 bitrate=N/A speed=1.01x elapsed=0:05:46.29    frame= 5081 fps= 15 q=-1.0 size=N/A time=00:05:51.93 bitrate=N/A speed=1.01x elapsed=0:05:46.79    frame= 5089 fps= 15 q=-1.0 size=N/A time=00:05:52.46 bitrate=N/A speed=1.01x elapsed=0:05:47.30    frame= 5097 fps= 15 q=-1.0 size=N/A time=00:05:53.00 bitrate=N/A speed=1.01x elapsed=0:05:47.80    frame= 5104 fps= 15 q=-1.0 size=N/A time=00:05:53.46 bitrate=N/A speed=1.01x elapsed=0:05:48.30    frame= 5111 fps= 15 q=-1.0 size=N/A time=00:05:53.93 bitrate=N/A speed=1.01x elapsed=0:05:48.81    frame= 5119 fps= 15 q=-1.0 size=N/A time=00:05:54.46 bitrate=N/A speed=1.01x elapsed=0:05:49.32    frame= 5127 fps= 15 q=-1.0 size=N/A time=00:05:55.00 bitrate=N/A speed=1.01x elapsed=0:05:49.82    frame= 5134 fps= 15 q=-1.0 size=N/A time=00:05:55.46 bitrate=N/A speed=1.01x elapsed=0:05:50.32    frame= 5142 fps= 15 q=-1.0 size=N/A time=00:05:56.00 bitrate=N/A speed=1.01x elapsed=0:05:50.83    frame= 5150 fps= 15 q=-1.0 size=N/A time=00:05:56.53 bitrate=N/A speed=1.01x elapsed=0:05:51.33    frame= 5157 fps= 15 q=-1.0 size=N/A time=00:05:57.00 bitrate=N/A speed=1.01x elapsed=0:05:51.83    frame= 5165 fps= 15 q=-1.0 size=N/A time=00:05:57.53 bitrate=N/A speed=1.01x elapsed=0:05:52.34    frame= 5172 fps= 15 q=-1.0 size=N/A time=00:05:58.00 bitrate=N/A speed=1.01x elapsed=0:05:52.84    frame= 5180 fps= 15 q=-1.0 size=N/A time=00:05:58.53 bitrate=N/A speed=1.01x elapsed=0:05:53.34    frame= 5187 fps= 15 q=-1.0 size=N/A time=00:05:59.00 bitrate=N/A speed=1.01x elapsed=0:05:53.84    frame= 5195 fps= 15 q=-1.0 size=N/A time=00:05:59.53 bitrate=N/A speed=1.01x elapsed=0:05:54.35    frame= 5202 fps= 15 q=-1.0 size=N/A time=00:06:00.00 bitrate=N/A speed=1.01x elapsed=0:05:54.85    frame= 5210 fps= 15 q=-1.0 size=N/A time=00:06:00.53 bitrate=N/A speed=1.01x elapsed=0:05:55.35    frame= 5217 fps= 15 q=-1.0 size=N/A time=00:06:01.00 bitrate=N/A speed=1.01x elapsed=0:05:55.86    frame= 5225 fps= 15 q=-1.0 size=N/A time=00:06:01.53 bitrate=N/A speed=1.01x elapsed=0:05:56.36    frame= 5233 fps= 15 q=-1.0 size=N/A time=00:06:02.06 bitrate=N/A speed=1.01x elapsed=0:05:56.87    frame= 5238 fps= 15 q=-1.0 size=N/A time=00:06:02.40 bitrate=N/A speed=1.01x elapsed=0:05:57.39    frame= 5248 fps= 15 q=-1.0 size=N/A time=00:06:03.06 bitrate=N/A speed=1.01x elapsed=0:05:57.90    [hls @ 0x15a105d80] Opening '/Users/DEEL/Luca/vibe_check/vibecheck-backend/hls/venue-003/index20.ts' for writing
[hls @ 0x15a105d80] Opening '/Users/DEEL/Luca/vibe_check/vibecheck-backend/hls/venue-003/index.m3u8.tmp' for writing
frame= 5256 fps= 15 q=-1.0 size=N/A time=00:06:03.60 bitrate=N/A speed=1.01x elapsed=0:05:58.40    frame= 5263 fps= 15 q=-1.0 size=N/A time=00:06:04.06 bitrate=N/A speed=1.01x elapsed=0:05:58.91    frame= 5271 fps= 15 q=-1.0 size=N/A time=00:06:04.60 bitrate=N/A speed=1.01x elapsed=0:05:59.41    frame= 5278 fps= 15 q=-1.0 size=N/A time=00:06:05.06 bitrate=N/A speed=1.01x elapsed=0:05:59.92    frame= 5286 fps= 15 q=-1.0 size=N/A time=00:06:05.60 bitrate=N/A speed=1.01x elapsed=0:06:00.42    frame= 5293 fps= 15 q=-1.0 size=N/A time=00:06:06.06 bitrate=N/A speed=1.01x elapsed=0:06:00.92    frame= 5301 fps= 15 q=-1.0 size=N/A time=00:06:06.60 bitrate=N/A speed=1.01x elapsed=0:06:01.43    frame= 5309 fps= 15 q=-1.0 size=N/A time=00:06:07.13 bitrate=N/A speed=1.01x elapsed=0:06:01.93    frame= 5316 fps= 15 q=-1.0 size=N/A time=00:06:07.60 bitrate=N/A speed=1.01x elapsed=0:06:02.43    frame= 5324 fps= 15 q=-1.0 size=N/A time=00:06:08.13 bitrate=N/A speed=1.01x elapsed=0:06:02.94    frame= 5331 fps= 15 q=-1.0 size=N/A time=00:06:08.60 bitrate=N/A speed=1.01x elapsed=0:06:03.44    frame= 5339 fps= 15 q=-1.0 size=N/A time=00:06:09.13 bitrate=N/A speed=1.01x elapsed=0:06:03.94    frame= 5346 fps= 15 q=-1.0 size=N/A time=00:06:09.60 bitrate=N/A speed=1.01x elapsed=0:06:04.45    frame= 5354 fps= 15 q=-1.0 size=N/A time=00:06:10.13 bitrate=N/A speed=1.01x elapsed=0:06:04.95    frame= 5361 fps= 15 q=-1.0 size=N/A time=00:06:10.60 bitrate=N/A speed=1.01x elapsed=0:06:05.46    frame= 5369 fps= 15 q=-1.0 size=N/A time=00:06:11.13 bitrate=N/A speed=1.01x elapsed=0:06:05.96    frame= 5377 fps= 15 q=-1.0 size=N/A time=00:06:11.66 bitrate=N/A speed=1.01x elapsed=0:06:06.46    frame= 5384 fps= 15 q=-1.0 size=N/A time=00:06:12.13 bitrate=N/A speed=1.01x elapsed=0:06:06.96    frame= 5392 fps= 15 q=-1.0 size=N/A time=00:06:12.66 bitrate=N/A speed=1.01x elapsed=0:06:07.47    frame= 5399 fps= 15 q=-1.0 size=N/A time=00:06:13.13 bitrate=N/A speed=1.01x elapsed=0:06:07.97    frame= 5407 fps= 15 q=-1.0 size=N/A time=00:06:13.66 bitrate=N/A speed=1.01x elapsed=0:06:08.47    frame= 5414 fps= 15 q=-1.0 size=N/A time=00:06:14.13 bitrate=N/A speed=1.01x elapsed=0:06:08.98    frame= 5422 fps= 15 q=-1.0 size=N/A time=00:06:14.66 bitrate=N/A speed=1.01x elapsed=0:06:09.48    frame= 5429 fps= 15 q=-1.0 size=N/A time=00:06:15.13 bitrate=N/A speed=1.01x elapsed=0:06:09.99    frame= 5437 fps= 15 q=-1.0 size=N/A time=00:06:15.66 bitrate=N/A speed=1.01x elapsed=0:06:10.49    frame= 5444 fps= 15 q=-1.0 size=N/A time=00:06:16.13 bitrate=N/A speed=1.01x elapsed=0:06:10.99    frame= 5452 fps= 15 q=-1.0 size=N/A time=00:06:16.66 bitrate=N/A speed=1.01x elapsed=0:06:11.50    frame= 5460 fps= 15 q=-1.0 size=N/A time=00:06:17.20 bitrate=N/A speed=1.01x elapsed=0:06:12.00    frame= 5467 fps= 15 q=-1.0 size=N/A time=00:06:17.66 bitrate=N/A speed=1.01x elapsed=0:06:12.50    frame= 5475 fps= 15 q=-1.0 size=N/A time=00:06:18.20 bitrate=N/A speed=1.01x elapsed=0:06:13.00    frame= 5482 fps= 15 q=-1.0 size=N/A time=00:06:18.66 bitrate=N/A speed=1.01x elapsed=0:06:13.50    frame= 5490 fps= 15 q=-1.0 size=N/A time=00:06:19.20 bitrate=N/A speed=1.01x elapsed=0:06:14.01    frame= 5497 fps= 15 q=-1.0 size=N/A time=00:06:19.66 bitrate=N/A speed=1.01x elapsed=0:06:14.51    [hls @ 0x15a105d80] Opening '/Users/DEEL/Luca/vibe_check/vibecheck-backend/hls/venue-003/index21.ts' for writing
[hls @ 0x15a105d80] Opening '/Users/DEEL/Luca/vibe_check/vibecheck-backend/hls/venue-003/index.m3u8.tmp' for writing
frame= 5505 fps= 15 q=-1.0 size=N/A time=00:06:20.20 bitrate=N/A speed=1.01x elapsed=0:06:15.01    frame= 5512 fps= 15 q=-1.0 size=N/A time=00:06:20.66 bitrate=N/A speed=1.01x elapsed=0:06:15.52    frame= 5520 fps= 15 q=-1.0 size=N/A time=00:06:21.20 bitrate=N/A speed=1.01x elapsed=0:06:16.02    frame= 5527 fps= 15 q=-1.0 size=N/A time=00:06:21.66 bitrate=N/A speed=1.01x elapsed=0:06:16.52    frame= 5535 fps= 15 q=-1.0 size=N/A time=00:06:22.20 bitrate=N/A speed=1.01x elapsed=0:06:17.02    frame= 5543 fps= 15 q=-1.0 size=N/A time=00:06:22.73 bitrate=N/A speed=1.01x elapsed=0:06:17.53    frame= 5550 fps= 15 q=-1.0 size=N/A time=00:06:23.20 bitrate=N/A speed=1.01x elapsed=0:06:18.03    frame= 5558 fps= 15 q=-1.0 size=N/A time=00:06:23.73 bitrate=N/A speed=1.01x elapsed=0:06:18.54    frame= 5565 fps= 15 q=-1.0 size=N/A time=00:06:24.20 bitrate=N/A speed=1.01x elapsed=0:06:19.04    frame= 5573 fps= 15 q=-1.0 size=N/A time=00:06:24.73 bitrate=N/A speed=1.01x elapsed=0:06:19.55    frame= 5580 fps= 15 q=-1.0 size=N/A time=00:06:25.20 bitrate=N/A speed=1.01x elapsed=0:06:20.05    frame= 5588 fps= 15 q=-1.0 size=N/A time=00:06:25.73 bitrate=N/A speed=1.01x elapsed=0:06:20.55    frame= 5595 fps= 15 q=-1.0 size=N/A time=00:06:26.20 bitrate=N/A speed=1.01x elapsed=0:06:21.05    frame= 5603 fps= 15 q=-1.0 size=N/A time=00:06:26.73 bitrate=N/A speed=1.01x elapsed=0:06:21.56    frame= 5611 fps= 15 q=-1.0 size=N/A time=00:06:27.26 bitrate=N/A speed=1.01x elapsed=0:06:22.06    frame= 5618 fps= 15 q=-1.0 size=N/A time=00:06:27.73 bitrate=N/A speed=1.01x elapsed=0:06:22.56    frame= 5626 fps= 15 q=-1.0 size=N/A time=00:06:28.26 bitrate=N/A speed=1.01x elapsed=0:06:23.06    frame= 5633 fps= 15 q=-1.0 size=N/A time=00:06:28.73 bitrate=N/A speed=1.01x elapsed=0:06:23.57    frame= 5641 fps= 15 q=-1.0 size=N/A time=00:06:29.26 bitrate=N/A speed=1.01x elapsed=0:06:24.07    frame= 5648 fps= 15 q=-1.0 size=N/A time=00:06:29.73 bitrate=N/A speed=1.01x elapsed=0:06:24.57    frame= 5656 fps= 15 q=-1.0 size=N/A time=00:06:30.26 bitrate=N/A speed=1.01x elapsed=0:06:25.08    frame= 5663 fps= 15 q=-1.0 size=N/A time=00:06:30.73 bitrate=N/A speed=1.01x elapsed=0:06:25.58    frame= 5671 fps= 15 q=-1.0 size=N/A time=00:06:31.26 bitrate=N/A speed=1.01x elapsed=0:06:26.09    frame= 5678 fps= 15 q=-1.0 size=N/A time=00:06:31.73 bitrate=N/A speed=1.01x elapsed=0:06:26.59    frame= 5686 fps= 15 q=-1.0 size=N/A time=00:06:32.26 bitrate=N/A speed=1.01x elapsed=0:06:27.10    frame= 5694 fps= 15 q=-1.0 size=N/A time=00:06:32.80 bitrate=N/A speed=1.01x elapsed=0:06:27.60    frame= 5701 fps= 15 q=-1.0 size=N/A time=00:06:33.26 bitrate=N/A speed=1.01x elapsed=0:06:28.11    frame= 5709 fps= 15 q=-1.0 size=N/A time=00:06:33.80 bitrate=N/A speed=1.01x elapsed=0:06:28.61    frame= 5716 fps= 15 q=-1.0 size=N/A time=00:06:34.26 bitrate=N/A speed=1.01x elapsed=0:06:29.12    frame= 5724 fps= 15 q=-1.0 size=N/A time=00:06:34.80 bitrate=N/A speed=1.01x elapsed=0:06:29.62    frame= 5731 fps= 15 q=-1.0 size=N/A time=00:06:35.26 bitrate=N/A speed=1.01x elapsed=0:06:30.13    frame= 5739 fps= 15 q=-1.0 size=N/A time=00:06:35.80 bitrate=N/A speed=1.01x elapsed=0:06:30.63    frame= 5747 fps= 15 q=-1.0 size=N/A time=00:06:36.33 bitrate=N/A speed=1.01x elapsed=0:06:31.14    [hls @ 0x15a105d80] Opening '/Users/DEEL/Luca/vibe_check/vibecheck-backend/hls/venue-003/index22.ts' for writing
[hls @ 0x15a105d80] Opening '/Users/DEEL/Luca/vibe_check/vibecheck-backend/hls/venue-003/index.m3u8.tmp' for writing
frame= 5754 fps= 15 q=-1.0 size=N/A time=00:06:36.80 bitrate=N/A speed=1.01x elapsed=0:06:31.64    frame= 5762 fps= 15 q=-1.0 size=N/A time=00:06:37.33 bitrate=N/A speed=1.01x elapsed=0:06:32.15    frame= 5769 fps= 15 q=-1.0 size=N/A time=00:06:37.80 bitrate=N/A speed=1.01x elapsed=0:06:32.65    frame= 5777 fps= 15 q=-1.0 size=N/A time=00:06:38.33 bitrate=N/A speed=1.01x elapsed=0:06:33.15    frame= 5785 fps= 15 q=-1.0 size=N/A time=00:06:38.86 bitrate=N/A speed=1.01x elapsed=0:06:33.66    frame= 5792 fps= 15 q=-1.0 size=N/A time=00:06:39.33 bitrate=N/A speed=1.01x elapsed=0:06:34.17    frame= 5800 fps= 15 q=-1.0 size=N/A time=00:06:39.86 bitrate=N/A speed=1.01x elapsed=0:06:34.67    frame= 5807 fps= 15 q=-1.0 size=N/A time=00:06:40.33 bitrate=N/A speed=1.01x elapsed=0:06:35.18    frame= 5815 fps= 15 q=-1.0 size=N/A time=00:06:40.86 bitrate=N/A speed=1.01x elapsed=0:06:35.68    frame= 5822 fps= 15 q=-1.0 size=N/A time=00:06:41.33 bitrate=N/A speed=1.01x elapsed=0:06:36.19    frame= 5830 fps= 15 q=-1.0 size=N/A time=00:06:41.86 bitrate=N/A speed=1.01x elapsed=0:06:36.69    frame= 5837 fps= 15 q=-1.0 size=N/A time=00:06:42.33 bitrate=N/A speed=1.01x elapsed=0:06:37.19    frame= 5845 fps= 15 q=-1.0 size=N/A time=00:06:42.86 bitrate=N/A speed=1.01x elapsed=0:06:37.69    frame= 5853 fps= 15 q=-1.0 size=N/A time=00:06:43.40 bitrate=N/A speed=1.01x elapsed=0:06:38.20    frame= 5860 fps= 15 q=-1.0 size=N/A time=00:06:43.86 bitrate=N/A speed=1.01x elapsed=0:06:38.70    frame= 5868 fps= 15 q=-1.0 size=N/A time=00:06:44.40 bitrate=N/A speed=1.01x elapsed=0:06:39.21    frame= 5875 fps= 15 q=-1.0 size=N/A time=00:06:44.86 bitrate=N/A speed=1.01x elapsed=0:06:39.71    frame= 5883 fps= 15 q=-1.0 size=N/A time=00:06:45.40 bitrate=N/A speed=1.01x elapsed=0:06:40.22    frame= 5890 fps= 15 q=-1.0 size=N/A time=00:06:45.86 bitrate=N/A speed=1.01x elapsed=0:06:40.72    frame= 5898 fps= 15 q=-1.0 size=N/A time=00:06:46.40 bitrate=N/A speed=1.01x elapsed=0:06:41.23    frame= 5906 fps= 15 q=-1.0 size=N/A time=00:06:46.93 bitrate=N/A speed=1.01x elapsed=0:06:41.73    frame= 5913 fps= 15 q=-1.0 size=N/A time=00:06:47.40 bitrate=N/A speed=1.01x elapsed=0:06:42.23    frame= 5921 fps= 15 q=-1.0 size=N/A time=00:06:47.93 bitrate=N/A speed=1.01x elapsed=0:06:42.74    frame= 5928 fps= 15 q=-1.0 size=N/A time=00:06:48.40 bitrate=N/A speed=1.01x elapsed=0:06:43.24    frame= 5936 fps= 15 q=-1.0 size=N/A time=00:06:48.93 bitrate=N/A speed=1.01x elapsed=0:06:43.75    frame= 5943 fps= 15 q=-1.0 size=N/A time=00:06:49.40 bitrate=N/A speed=1.01x elapsed=0:06:44.25    frame= 5951 fps= 15 q=-1.0 size=N/A time=00:06:49.93 bitrate=N/A speed=1.01x elapsed=0:06:44.75    frame= 5958 fps= 15 q=-1.0 size=N/A time=00:06:50.40 bitrate=N/A speed=1.01x elapsed=0:06:45.26    frame= 5966 fps= 15 q=-1.0 size=N/A time=00:06:50.93 bitrate=N/A speed=1.01x elapsed=0:06:45.76    frame= 5973 fps= 15 q=-1.0 size=N/A time=00:06:51.40 bitrate=N/A speed=1.01x elapsed=0:06:46.26    frame= 5981 fps= 15 q=-1.0 size=N/A time=00:06:51.93 bitrate=N/A speed=1.01x elapsed=0:06:46.76    frame= 5989 fps= 15 q=-1.0 size=N/A time=00:06:52.46 bitrate=N/A speed=1.01x elapsed=0:06:47.27    frame= 5996 fps= 15 q=-1.0 size=N/A time=00:06:52.93 bitrate=N/A speed=1.01x elapsed=0:06:47.77    [hls @ 0x15a105d80] Opening '/Users/DEEL/Luca/vibe_check/vibecheck-backend/hls/venue-003/index23.ts' for writing
[hls @ 0x15a105d80] Opening '/Users/DEEL/Luca/vibe_check/vibecheck-backend/hls/venue-003/index.m3u8.tmp' for writing
frame= 6004 fps= 15 q=-1.0 size=N/A time=00:06:53.46 bitrate=N/A speed=1.01x elapsed=0:06:48.28    frame= 6011 fps= 15 q=-1.0 size=N/A time=00:06:53.93 bitrate=N/A speed=1.01x elapsed=0:06:48.78    frame= 6019 fps= 15 q=-1.0 size=N/A time=00:06:54.46 bitrate=N/A speed=1.01x elapsed=0:06:49.30    frame= 6027 fps= 15 q=-1.0 size=N/A time=00:06:55.00 bitrate=N/A speed=1.01x elapsed=0:06:49.80    frame= 6034 fps= 15 q=-1.0 size=N/A time=00:06:55.46 bitrate=N/A speed=1.01x elapsed=0:06:50.31    frame= 6042 fps= 15 q=-1.0 size=N/A time=00:06:56.00 bitrate=N/A speed=1.01x elapsed=0:06:50.81    frame= 6049 fps= 15 q=-1.0 size=N/A time=00:06:56.46 bitrate=N/A speed=1.01x elapsed=0:06:51.32    frame= 6057 fps= 15 q=-1.0 size=N/A time=00:06:57.00 bitrate=N/A speed=1.01x elapsed=0:06:51.82    frame= 6064 fps= 15 q=-1.0 size=N/A time=00:06:57.46 bitrate=N/A speed=1.01x elapsed=0:06:52.32    frame= 6072 fps= 15 q=-1.0 size=N/A time=00:06:58.00 bitrate=N/A speed=1.01x elapsed=0:06:52.82    frame= 6080 fps= 15 q=-1.0 size=N/A time=00:06:58.53 bitrate=N/A speed=1.01x elapsed=0:06:53.33    frame= 6087 fps= 15 q=-1.0 size=N/A time=00:06:59.00 bitrate=N/A speed=1.01x elapsed=0:06:53.83    frame= 6095 fps= 15 q=-1.0 size=N/A time=00:06:59.53 bitrate=N/A speed=1.01x elapsed=0:06:54.33    frame= 6102 fps= 15 q=-1.0 size=N/A time=00:07:00.00 bitrate=N/A speed=1.01x elapsed=0:06:54.84    frame= 6109 fps= 15 q=-1.0 size=N/A time=00:07:00.46 bitrate=N/A speed=1.01x elapsed=0:06:55.35    frame= 6117 fps= 15 q=-1.0 size=N/A time=00:07:01.00 bitrate=N/A speed=1.01x elapsed=0:06:55.85    frame= 6125 fps= 15 q=-1.0 size=N/A time=00:07:01.53 bitrate=N/A speed=1.01x elapsed=0:06:56.35    frame= 6132 fps= 15 q=-1.0 size=N/A time=00:07:02.00 bitrate=N/A speed=1.01x elapsed=0:06:56.85    frame= 6140 fps= 15 q=-1.0 size=N/A time=00:07:02.53 bitrate=N/A speed=1.01x elapsed=0:06:57.36    frame= 6148 fps= 15 q=-1.0 size=N/A time=00:07:03.06 bitrate=N/A speed=1.01x elapsed=0:06:57.86    frame= 6155 fps= 15 q=-1.0 size=N/A time=00:07:03.53 bitrate=N/A speed=1.01x elapsed=0:06:58.37    frame= 6163 fps= 15 q=-1.0 size=N/A time=00:07:04.06 bitrate=N/A speed=1.01x elapsed=0:06:58.87    frame= 6170 fps= 15 q=-1.0 size=N/A time=00:07:04.53 bitrate=N/A speed=1.01x elapsed=0:06:59.37    frame= 6178 fps= 15 q=-1.0 size=N/A time=00:07:05.06 bitrate=N/A speed=1.01x elapsed=0:06:59.88    frame= 6185 fps= 15 q=-1.0 size=N/A time=00:07:05.53 bitrate=N/A speed=1.01x elapsed=0:07:00.38    frame= 6193 fps= 15 q=-1.0 size=N/A time=00:07:06.06 bitrate=N/A speed=1.01x elapsed=0:07:00.89    